<?xml version="1.0" encoding="UTF-8" standalone="no"?>
<!DOCTYPE svg PUBLIC "-//W3C//DTD SVG 1.1//EN"
 "http://www.w3.org/Graphics/SVG/1.1/DTD/svg11.dtd">
<!-- Generated by graphviz version 11.0.0 (20240519.1550)
 -->
<!-- Title: snakemake_dag Pages: 1 -->
<svg width="566pt" height="1052pt"
 viewBox="0.00 0.00 565.85 1052.00" xmlns="http://www.w3.org/2000/svg" xmlns:xlink="http://www.w3.org/1999/xlink">
<g id="graph0" class="graph" transform="scale(1 1) rotate(0) translate(4 1048)">
<title>snakemake_dag</title>
<polygon fill="white" stroke="none" points="-4,4 -4,-1048 561.85,-1048 561.85,4 -4,4"/>
<!-- 0 -->
<g id="node1" class="node">
<title>0</title>
<path fill="none" stroke="#56d87b" stroke-width="2" d="M87.42,-36C87.42,-36 57.42,-36 57.42,-36 51.42,-36 45.42,-30 45.42,-24 45.42,-24 45.42,-12 45.42,-12 45.42,-6 51.42,0 57.42,0 57.42,0 87.42,0 87.42,0 93.42,0 99.42,-6 99.42,-12 99.42,-12 99.42,-24 99.42,-24 99.42,-30 93.42,-36 87.42,-36"/>
<text text-anchor="middle" x="72.42" y="-14.88" font-family="sans" font-size="10.00">all</text>
</g>
<!-- 1 -->
<g id="node2" class="node">
<title>1</title>
<path fill="none" stroke="#b6d856" stroke-width="2" d="M104.42,-108C104.42,-108 40.42,-108 40.42,-108 34.42,-108 28.42,-102 28.42,-96 28.42,-96 28.42,-84 28.42,-84 28.42,-78 34.42,-72 40.42,-72 40.42,-72 104.42,-72 104.42,-72 110.42,-72 116.42,-78 116.42,-84 116.42,-84 116.42,-96 116.42,-96 116.42,-102 110.42,-108 104.42,-108"/>
<text text-anchor="middle" x="72.42" y="-86.88" font-family="sans" font-size="10.00">piawka_agg_pi</text>
</g>
<!-- 1&#45;&gt;0 -->
<g id="edge1" class="edge">
<title>1&#45;&gt;0</title>
<path fill="none" stroke="grey" stroke-width="2" d="M72.42,-71.34C72.42,-64.75 72.42,-57.08 72.42,-49.67"/>
<polygon fill="grey" stroke="grey" stroke-width="2" points="75.92,-49.93 72.42,-39.93 68.92,-49.93 75.92,-49.93"/>
</g>
<!-- 2 -->
<g id="node3" class="node">
<title>2</title>
<path fill="none" stroke="#56d8d8" stroke-width="2" d="M92.79,-180C92.79,-180 52.04,-180 52.04,-180 46.04,-180 40.04,-174 40.04,-168 40.04,-168 40.04,-156 40.04,-156 40.04,-150 46.04,-144 52.04,-144 52.04,-144 92.79,-144 92.79,-144 98.79,-144 104.79,-150 104.79,-156 104.79,-156 104.79,-168 104.79,-168 104.79,-174 98.79,-180 92.79,-180"/>
<text text-anchor="middle" x="72.42" y="-158.88" font-family="sans" font-size="10.00">piawka_pi</text>
</g>
<!-- 2&#45;&gt;1 -->
<g id="edge2" class="edge">
<title>2&#45;&gt;1</title>
<path fill="none" stroke="grey" stroke-width="2" d="M72.42,-143.34C72.42,-136.75 72.42,-129.08 72.42,-121.67"/>
<polygon fill="grey" stroke="grey" stroke-width="2" points="75.92,-121.93 72.42,-111.93 68.92,-121.93 75.92,-121.93"/>
</g>
<!-- 3 -->
<g id="node4" class="node">
<title>3</title>
<path fill="none" stroke="#59d856" stroke-width="2" stroke-dasharray="5,2" d="M296.79,-900C296.79,-900 256.04,-900 256.04,-900 250.04,-900 244.04,-894 244.04,-888 244.04,-888 244.04,-876 244.04,-876 244.04,-870 250.04,-864 256.04,-864 256.04,-864 296.79,-864 296.79,-864 302.79,-864 308.79,-870 308.79,-876 308.79,-876 308.79,-888 308.79,-888 308.79,-894 302.79,-900 296.79,-900"/>
<text text-anchor="middle" x="276.42" y="-878.88" font-family="sans" font-size="10.00">fasta2bed</text>
</g>
<!-- 3&#45;&gt;2 -->
<g id="edge3" class="edge">
<title>3&#45;&gt;2</title>
<path fill="none" stroke="grey" stroke-width="2" d="M243.31,-878.54C181.58,-873.27 52.36,-858.77 21.42,-828 -7.26,-799.48 2.42,-779.45 2.42,-739 2.42,-739 2.42,-739 2.42,-305 2.42,-261.81 28.79,-218.14 49.17,-190.85"/>
<polygon fill="grey" stroke="grey" stroke-width="2" points="51.67,-193.33 55.03,-183.28 46.14,-189.04 51.67,-193.33"/>
</g>
<!-- 15 -->
<g id="node16" class="node">
<title>15</title>
<path fill="none" stroke="#56b9d8" stroke-width="2" stroke-dasharray="5,2" d="M515.79,-828C515.79,-828 457.04,-828 457.04,-828 451.04,-828 445.04,-822 445.04,-816 445.04,-816 445.04,-804 445.04,-804 445.04,-798 451.04,-792 457.04,-792 457.04,-792 515.79,-792 515.79,-792 521.79,-792 527.79,-798 527.79,-804 527.79,-804 527.79,-816 527.79,-816 527.79,-822 521.79,-828 515.79,-828"/>
<text text-anchor="middle" x="486.42" y="-813.25" font-family="sans" font-size="10.00">bcftools_call</text>
<text text-anchor="middle" x="486.42" y="-800.5" font-family="sans" font-size="10.00">xyz: FG04258</text>
</g>
<!-- 3&#45;&gt;15 -->
<g id="edge23" class="edge">
<title>3&#45;&gt;15</title>
<path fill="none" stroke="grey" stroke-width="2" d="M309.69,-869.91C342.57,-858.95 393.41,-842 432.13,-829.1"/>
<polygon fill="grey" stroke="grey" stroke-width="2" points="432.99,-832.5 441.37,-826.02 430.78,-825.86 432.99,-832.5"/>
</g>
<!-- 18 -->
<g id="node19" class="node">
<title>18</title>
<path fill="none" stroke="#56b9d8" stroke-width="2" stroke-dasharray="5,2" d="M103.92,-828C103.92,-828 42.92,-828 42.92,-828 36.92,-828 30.92,-822 30.92,-816 30.92,-816 30.92,-804 30.92,-804 30.92,-798 36.92,-792 42.92,-792 42.92,-792 103.92,-792 103.92,-792 109.92,-792 115.92,-798 115.92,-804 115.92,-804 115.92,-816 115.92,-816 115.92,-822 109.92,-828 103.92,-828"/>
<text text-anchor="middle" x="73.42" y="-813.25" font-family="sans" font-size="10.00">bcftools_call</text>
<text text-anchor="middle" x="73.42" y="-800.5" font-family="sans" font-size="10.00">xyz: MP_AC48</text>
</g>
<!-- 3&#45;&gt;18 -->
<g id="edge26" class="edge">
<title>3&#45;&gt;18</title>
<path fill="none" stroke="grey" stroke-width="2" d="M243.35,-869.6C212.36,-858.91 165.45,-842.73 128.76,-830.08"/>
<polygon fill="grey" stroke="grey" stroke-width="2" points="130.2,-826.88 119.6,-826.93 127.92,-833.49 130.2,-826.88"/>
</g>
<!-- 21 -->
<g id="node22" class="node">
<title>21</title>
<path fill="none" stroke="#56b9d8" stroke-width="2" stroke-dasharray="5,2" d="M206.92,-828C206.92,-828 145.92,-828 145.92,-828 139.92,-828 133.92,-822 133.92,-816 133.92,-816 133.92,-804 133.92,-804 133.92,-798 139.92,-792 145.92,-792 145.92,-792 206.92,-792 206.92,-792 212.92,-792 218.92,-798 218.92,-804 218.92,-804 218.92,-816 218.92,-816 218.92,-822 212.92,-828 206.92,-828"/>
<text text-anchor="middle" x="176.42" y="-813.25" font-family="sans" font-size="10.00">bcftools_call</text>
<text text-anchor="middle" x="176.42" y="-800.5" font-family="sans" font-size="10.00">xyz: MP_BR24</text>
</g>
<!-- 3&#45;&gt;21 -->
<g id="edge29" class="edge">
<title>3&#45;&gt;21</title>
<path fill="none" stroke="grey" stroke-width="2" d="M250.93,-863.15C239.17,-854.93 225.02,-845.02 212.22,-836.06"/>
<polygon fill="grey" stroke="grey" stroke-width="2" points="214.55,-833.42 204.35,-830.55 210.53,-839.15 214.55,-833.42"/>
</g>
<!-- 24 -->
<g id="node25" class="node">
<title>24</title>
<path fill="none" stroke="#56b9d8" stroke-width="2" stroke-dasharray="5,2" d="M303.92,-828C303.92,-828 248.92,-828 248.92,-828 242.92,-828 236.92,-822 236.92,-816 236.92,-816 236.92,-804 236.92,-804 236.92,-798 242.92,-792 248.92,-792 248.92,-792 303.92,-792 303.92,-792 309.92,-792 315.92,-798 315.92,-804 315.92,-804 315.92,-816 315.92,-816 315.92,-822 309.92,-828 303.92,-828"/>
<text text-anchor="middle" x="276.42" y="-813.25" font-family="sans" font-size="10.00">bcftools_call</text>
<text text-anchor="middle" x="276.42" y="-800.5" font-family="sans" font-size="10.00">xyz: MP_D48</text>
</g>
<!-- 3&#45;&gt;24 -->
<g id="edge32" class="edge">
<title>3&#45;&gt;24</title>
<path fill="none" stroke="grey" stroke-width="2" d="M276.42,-863.34C276.42,-856.75 276.42,-849.08 276.42,-841.67"/>
<polygon fill="grey" stroke="grey" stroke-width="2" points="279.92,-841.93 276.42,-831.93 272.92,-841.93 279.92,-841.93"/>
</g>
<!-- 27 -->
<g id="node28" class="node">
<title>27</title>
<path fill="none" stroke="#56b9d8" stroke-width="2" stroke-dasharray="5,2" d="M414.67,-828C414.67,-828 346.17,-828 346.17,-828 340.17,-828 334.17,-822 334.17,-816 334.17,-816 334.17,-804 334.17,-804 334.17,-798 340.17,-792 346.17,-792 346.17,-792 414.67,-792 414.67,-792 420.67,-792 426.67,-798 426.67,-804 426.67,-804 426.67,-816 426.67,-816 426.67,-822 420.67,-828 414.67,-828"/>
<text text-anchor="middle" x="380.42" y="-813.25" font-family="sans" font-size="10.00">bcftools_call</text>
<text text-anchor="middle" x="380.42" y="-800.5" font-family="sans" font-size="10.00">xyz: MP_GBR01</text>
</g>
<!-- 3&#45;&gt;27 -->
<g id="edge35" class="edge">
<title>3&#45;&gt;27</title>
<path fill="none" stroke="grey" stroke-width="2" d="M302.93,-863.15C315.16,-854.93 329.88,-845.02 343.19,-836.06"/>
<polygon fill="grey" stroke="grey" stroke-width="2" points="345.1,-838.99 351.44,-830.5 341.19,-833.18 345.1,-838.99"/>
</g>
<!-- 31 -->
<g id="node32" class="node">
<title>31</title>
<path fill="none" stroke="#567bd8" stroke-width="2" stroke-dasharray="5,2" d="M171.17,-324C171.17,-324 123.67,-324 123.67,-324 117.67,-324 111.67,-318 111.67,-312 111.67,-312 111.67,-300 111.67,-300 111.67,-294 117.67,-288 123.67,-288 123.67,-288 171.17,-288 171.17,-288 177.17,-288 183.17,-294 183.17,-300 183.17,-300 183.17,-312 183.17,-312 183.17,-318 177.17,-324 171.17,-324"/>
<text text-anchor="middle" x="147.42" y="-302.88" font-family="sans" font-size="10.00">piawka_het</text>
</g>
<!-- 3&#45;&gt;31 -->
<g id="edge43" class="edge">
<title>3&#45;&gt;31</title>
<path fill="none" stroke="grey" stroke-width="2" d="M309.68,-878.67C372.42,-873.6 504.76,-859.37 536.42,-828 565.15,-799.53 555.42,-779.45 555.42,-739 555.42,-739 555.42,-739 555.42,-449 555.42,-373.85 305.42,-329.34 196.81,-313.55"/>
<polygon fill="grey" stroke="grey" stroke-width="2" points="197.38,-310.1 186.98,-312.15 196.39,-317.03 197.38,-310.1"/>
</g>
<!-- 4 -->
<g id="node5" class="node">
<title>4</title>
<path fill="none" stroke="#78d856" stroke-width="2" stroke-dasharray="5,2" d="M291.42,-972C291.42,-972 261.42,-972 261.42,-972 255.42,-972 249.42,-966 249.42,-960 249.42,-960 249.42,-948 249.42,-948 249.42,-942 255.42,-936 261.42,-936 261.42,-936 291.42,-936 291.42,-936 297.42,-936 303.42,-942 303.42,-948 303.42,-948 303.42,-960 303.42,-960 303.42,-966 297.42,-972 291.42,-972"/>
<text text-anchor="middle" x="276.42" y="-950.88" font-family="sans" font-size="10.00">gstacks</text>
</g>
<!-- 4&#45;&gt;3 -->
<g id="edge6" class="edge">
<title>4&#45;&gt;3</title>
<path fill="none" stroke="grey" stroke-width="2" d="M276.42,-935.34C276.42,-928.75 276.42,-921.08 276.42,-913.67"/>
<polygon fill="grey" stroke="grey" stroke-width="2" points="279.92,-913.93 276.42,-903.93 272.92,-913.93 279.92,-913.93"/>
</g>
<!-- 5 -->
<g id="node6" class="node">
<title>5</title>
<path fill="none" stroke="#97d856" stroke-width="2" stroke-dasharray="5,2" d="M89.04,-1044C89.04,-1044 19.79,-1044 19.79,-1044 13.79,-1044 7.79,-1038 7.79,-1032 7.79,-1032 7.79,-1020 7.79,-1020 7.79,-1014 13.79,-1008 19.79,-1008 19.79,-1008 89.04,-1008 89.04,-1008 95.04,-1008 101.04,-1014 101.04,-1020 101.04,-1020 101.04,-1032 101.04,-1032 101.04,-1038 95.04,-1044 89.04,-1044"/>
<text text-anchor="middle" x="54.42" y="-1029.25" font-family="sans" font-size="10.00">samtools_index</text>
<text text-anchor="middle" x="54.42" y="-1016.5" font-family="sans" font-size="10.00">xyz: FG04258</text>
</g>
<!-- 5&#45;&gt;4 -->
<g id="edge7" class="edge">
<title>5&#45;&gt;4</title>
<path fill="none" stroke="grey" stroke-width="2" d="M102.04,-1009.98C142.11,-997.35 198.73,-979.5 236.47,-967.6"/>
<polygon fill="grey" stroke="grey" stroke-width="2" points="237.12,-971.06 245.6,-964.72 235.01,-964.39 237.12,-971.06"/>
</g>
<!-- 6 -->
<g id="node7" class="node">
<title>6</title>
<path fill="none" stroke="#97d856" stroke-width="2" stroke-dasharray="5,2" d="M200.04,-1044C200.04,-1044 130.79,-1044 130.79,-1044 124.79,-1044 118.79,-1038 118.79,-1032 118.79,-1032 118.79,-1020 118.79,-1020 118.79,-1014 124.79,-1008 130.79,-1008 130.79,-1008 200.04,-1008 200.04,-1008 206.04,-1008 212.04,-1014 212.04,-1020 212.04,-1020 212.04,-1032 212.04,-1032 212.04,-1038 206.04,-1044 200.04,-1044"/>
<text text-anchor="middle" x="165.42" y="-1029.25" font-family="sans" font-size="10.00">samtools_index</text>
<text text-anchor="middle" x="165.42" y="-1016.5" font-family="sans" font-size="10.00">xyz: MP_AC48</text>
</g>
<!-- 6&#45;&gt;4 -->
<g id="edge8" class="edge">
<title>6&#45;&gt;4</title>
<path fill="none" stroke="grey" stroke-width="2" d="M193.72,-1007.15C207.13,-998.7 223.35,-988.47 237.87,-979.31"/>
<polygon fill="grey" stroke="grey" stroke-width="2" points="239.41,-982.48 246,-974.18 235.67,-976.56 239.41,-982.48"/>
</g>
<!-- 7 -->
<g id="node8" class="node">
<title>7</title>
<path fill="none" stroke="#97d856" stroke-width="2" stroke-dasharray="5,2" d="M311.04,-1044C311.04,-1044 241.79,-1044 241.79,-1044 235.79,-1044 229.79,-1038 229.79,-1032 229.79,-1032 229.79,-1020 229.79,-1020 229.79,-1014 235.79,-1008 241.79,-1008 241.79,-1008 311.04,-1008 311.04,-1008 317.04,-1008 323.04,-1014 323.04,-1020 323.04,-1020 323.04,-1032 323.04,-1032 323.04,-1038 317.04,-1044 311.04,-1044"/>
<text text-anchor="middle" x="276.42" y="-1029.25" font-family="sans" font-size="10.00">samtools_index</text>
<text text-anchor="middle" x="276.42" y="-1016.5" font-family="sans" font-size="10.00">xyz: MP_BR24</text>
</g>
<!-- 7&#45;&gt;4 -->
<g id="edge9" class="edge">
<title>7&#45;&gt;4</title>
<path fill="none" stroke="grey" stroke-width="2" d="M276.42,-1007.34C276.42,-1000.75 276.42,-993.08 276.42,-985.67"/>
<polygon fill="grey" stroke="grey" stroke-width="2" points="279.92,-985.93 276.42,-975.93 272.92,-985.93 279.92,-985.93"/>
</g>
<!-- 8 -->
<g id="node9" class="node">
<title>8</title>
<path fill="none" stroke="#97d856" stroke-width="2" stroke-dasharray="5,2" d="M422.04,-1044C422.04,-1044 352.79,-1044 352.79,-1044 346.79,-1044 340.79,-1038 340.79,-1032 340.79,-1032 340.79,-1020 340.79,-1020 340.79,-1014 346.79,-1008 352.79,-1008 352.79,-1008 422.04,-1008 422.04,-1008 428.04,-1008 434.04,-1014 434.04,-1020 434.04,-1020 434.04,-1032 434.04,-1032 434.04,-1038 428.04,-1044 422.04,-1044"/>
<text text-anchor="middle" x="387.42" y="-1029.25" font-family="sans" font-size="10.00">samtools_index</text>
<text text-anchor="middle" x="387.42" y="-1016.5" font-family="sans" font-size="10.00">xyz: MP_D48</text>
</g>
<!-- 8&#45;&gt;4 -->
<g id="edge10" class="edge">
<title>8&#45;&gt;4</title>
<path fill="none" stroke="grey" stroke-width="2" d="M359.12,-1007.15C345.71,-998.7 329.49,-988.47 314.97,-979.31"/>
<polygon fill="grey" stroke="grey" stroke-width="2" points="317.17,-976.56 306.84,-974.18 313.43,-982.48 317.17,-976.56"/>
</g>
<!-- 9 -->
<g id="node10" class="node">
<title>9</title>
<path fill="none" stroke="#97d856" stroke-width="2" stroke-dasharray="5,2" d="M533.04,-1044C533.04,-1044 463.79,-1044 463.79,-1044 457.79,-1044 451.79,-1038 451.79,-1032 451.79,-1032 451.79,-1020 451.79,-1020 451.79,-1014 457.79,-1008 463.79,-1008 463.79,-1008 533.04,-1008 533.04,-1008 539.04,-1008 545.04,-1014 545.04,-1020 545.04,-1020 545.04,-1032 545.04,-1032 545.04,-1038 539.04,-1044 533.04,-1044"/>
<text text-anchor="middle" x="498.42" y="-1029.25" font-family="sans" font-size="10.00">samtools_index</text>
<text text-anchor="middle" x="498.42" y="-1016.5" font-family="sans" font-size="10.00">xyz: MP_GBR01</text>
</g>
<!-- 9&#45;&gt;4 -->
<g id="edge11" class="edge">
<title>9&#45;&gt;4</title>
<path fill="none" stroke="grey" stroke-width="2" d="M450.79,-1009.98C410.73,-997.35 354.11,-979.5 316.37,-967.6"/>
<polygon fill="grey" stroke="grey" stroke-width="2" points="317.83,-964.39 307.24,-964.72 315.72,-971.06 317.83,-964.39"/>
</g>
<!-- 10 -->
<g id="node11" class="node">
<title>10</title>
<path fill="none" stroke="#d89556" stroke-width="2" stroke-dasharray="5,2" d="M163.42,-396C163.42,-396 93.42,-396 93.42,-396 87.42,-396 81.42,-390 81.42,-384 81.42,-384 81.42,-372 81.42,-372 81.42,-366 87.42,-360 93.42,-360 93.42,-360 163.42,-360 163.42,-360 169.42,-360 175.42,-366 175.42,-372 175.42,-372 175.42,-384 175.42,-384 175.42,-390 169.42,-396 163.42,-396"/>
<text text-anchor="middle" x="128.42" y="-374.88" font-family="sans" font-size="10.00">filter_singletons</text>
</g>
<!-- 10&#45;&gt;2 -->
<g id="edge4" class="edge">
<title>10&#45;&gt;2</title>
<path fill="none" stroke="grey" stroke-width="2" d="M118.26,-359.36C112.85,-349.29 106.48,-336.26 102.42,-324 87.78,-279.84 79.6,-226.36 75.6,-193.51"/>
<polygon fill="grey" stroke="grey" stroke-width="2" points="79.1,-193.33 74.48,-183.79 72.15,-194.13 79.1,-193.33"/>
</g>
<!-- 10&#45;&gt;31 -->
<g id="edge44" class="edge">
<title>10&#45;&gt;31</title>
<path fill="none" stroke="grey" stroke-width="2" d="M133.21,-359.34C135.02,-352.67 137.14,-344.89 139.17,-337.39"/>
<polygon fill="grey" stroke="grey" stroke-width="2" points="142.53,-338.39 141.77,-327.82 135.77,-336.56 142.53,-338.39"/>
</g>
<!-- 11 -->
<g id="node12" class="node">
<title>11</title>
<path fill="none" stroke="#56d8b9" stroke-width="2" stroke-dasharray="5,2" d="M220.92,-540C220.92,-540 153.92,-540 153.92,-540 147.92,-540 141.92,-534 141.92,-528 141.92,-528 141.92,-516 141.92,-516 141.92,-510 147.92,-504 153.92,-504 153.92,-504 220.92,-504 220.92,-504 226.92,-504 232.92,-510 232.92,-516 232.92,-516 232.92,-528 232.92,-528 232.92,-534 226.92,-540 220.92,-540"/>
<text text-anchor="middle" x="187.42" y="-518.88" font-family="sans" font-size="10.00">bcftools_merge</text>
</g>
<!-- 11&#45;&gt;10 -->
<g id="edge12" class="edge">
<title>11&#45;&gt;10</title>
<path fill="none" stroke="grey" stroke-width="2" d="M164.9,-503.24C154.73,-493.9 143.62,-481.58 137.42,-468 129.13,-449.85 126.89,-427.51 126.72,-409.75"/>
<polygon fill="grey" stroke="grey" stroke-width="2" points="130.22,-410.02 126.89,-399.96 123.22,-409.9 130.22,-410.02"/>
</g>
<!-- 29 -->
<g id="node30" class="node">
<title>29</title>
<path fill="none" stroke="#d6d856" stroke-width="2" stroke-dasharray="5,2" d="M222.04,-468C222.04,-468 158.79,-468 158.79,-468 152.79,-468 146.79,-462 146.79,-456 146.79,-456 146.79,-444 146.79,-444 146.79,-438 152.79,-432 158.79,-432 158.79,-432 222.04,-432 222.04,-432 228.04,-432 234.04,-438 234.04,-444 234.04,-444 234.04,-456 234.04,-456 234.04,-462 228.04,-468 222.04,-468"/>
<text text-anchor="middle" x="190.42" y="-446.88" font-family="sans" font-size="10.00">get_singletons</text>
</g>
<!-- 11&#45;&gt;29 -->
<g id="edge41" class="edge">
<title>11&#45;&gt;29</title>
<path fill="none" stroke="grey" stroke-width="2" d="M188.18,-503.34C188.46,-496.75 188.79,-489.08 189.11,-481.67"/>
<polygon fill="grey" stroke="grey" stroke-width="2" points="192.59,-482.07 189.52,-471.93 185.6,-481.77 192.59,-482.07"/>
</g>
<!-- 12 -->
<g id="node13" class="node">
<title>12</title>
<path fill="none" stroke="#56d89a" stroke-width="2" stroke-dasharray="5,2" d="M224.54,-612C224.54,-612 140.29,-612 140.29,-612 134.29,-612 128.29,-606 128.29,-600 128.29,-600 128.29,-588 128.29,-588 128.29,-582 134.29,-576 140.29,-576 140.29,-576 224.54,-576 224.54,-576 230.54,-576 236.54,-582 236.54,-588 236.54,-588 236.54,-600 236.54,-600 236.54,-606 230.54,-612 224.54,-612"/>
<text text-anchor="middle" x="182.42" y="-597.25" font-family="sans" font-size="10.00">bcftools_submerge</text>
<text text-anchor="middle" x="182.42" y="-584.5" font-family="sans" font-size="10.00">i: 0</text>
</g>
<!-- 12&#45;&gt;11 -->
<g id="edge14" class="edge">
<title>12&#45;&gt;11</title>
<path fill="none" stroke="grey" stroke-width="2" d="M183.68,-575.34C184.15,-568.75 184.7,-561.08 185.23,-553.67"/>
<polygon fill="grey" stroke="grey" stroke-width="2" points="188.7,-554.15 185.92,-543.92 181.72,-553.65 188.7,-554.15"/>
</g>
<!-- 13 -->
<g id="node14" class="node">
<title>13</title>
<path fill="none" stroke="#d85656" stroke-width="2" stroke-dasharray="5,2" d="M495.54,-684C495.54,-684 441.29,-684 441.29,-684 435.29,-684 429.29,-678 429.29,-672 429.29,-672 429.29,-660 429.29,-660 429.29,-654 435.29,-648 441.29,-648 441.29,-648 495.54,-648 495.54,-648 501.54,-648 507.54,-654 507.54,-660 507.54,-660 507.54,-672 507.54,-672 507.54,-678 501.54,-684 495.54,-684"/>
<text text-anchor="middle" x="468.42" y="-662.88" font-family="sans" font-size="10.00">bcftools_sort</text>
</g>
<!-- 13&#45;&gt;12 -->
<g id="edge16" class="edge">
<title>13&#45;&gt;12</title>
<path fill="none" stroke="grey" stroke-width="2" d="M428.48,-650.39C425.76,-649.54 423.06,-648.74 420.42,-648 347.81,-627.78 324.98,-630.04 249.86,-612.95"/>
<polygon fill="grey" stroke="grey" stroke-width="2" points="250.83,-609.58 240.29,-610.72 249.24,-616.4 250.83,-609.58"/>
</g>
<!-- 28 -->
<g id="node29" class="node">
<title>28</title>
<path fill="none" stroke="#56d89a" stroke-width="2" stroke-dasharray="5,2" d="M350.54,-612C350.54,-612 266.29,-612 266.29,-612 260.29,-612 254.29,-606 254.29,-600 254.29,-600 254.29,-588 254.29,-588 254.29,-582 260.29,-576 266.29,-576 266.29,-576 350.54,-576 350.54,-576 356.54,-576 362.54,-582 362.54,-588 362.54,-588 362.54,-600 362.54,-600 362.54,-606 356.54,-612 350.54,-612"/>
<text text-anchor="middle" x="308.42" y="-597.25" font-family="sans" font-size="10.00">bcftools_submerge</text>
<text text-anchor="middle" x="308.42" y="-584.5" font-family="sans" font-size="10.00">i: 1</text>
</g>
<!-- 13&#45;&gt;28 -->
<g id="edge36" class="edge">
<title>13&#45;&gt;28</title>
<path fill="none" stroke="grey" stroke-width="2" d="M428.46,-647.52C408.15,-638.63 383.21,-627.72 361.33,-618.15"/>
<polygon fill="grey" stroke="grey" stroke-width="2" points="362.88,-615.01 352.32,-614.2 360.07,-621.42 362.88,-615.01"/>
</g>
<!-- 14 -->
<g id="node15" class="node">
<title>14</title>
<path fill="none" stroke="#569ad8" stroke-width="2" stroke-dasharray="5,2" d="M511.42,-756C511.42,-756 453.42,-756 453.42,-756 447.42,-756 441.42,-750 441.42,-744 441.42,-744 441.42,-732 441.42,-732 441.42,-726 447.42,-720 453.42,-720 453.42,-720 511.42,-720 511.42,-720 517.42,-720 523.42,-726 523.42,-732 523.42,-732 523.42,-744 523.42,-744 523.42,-750 517.42,-756 511.42,-756"/>
<text text-anchor="middle" x="482.42" y="-734.88" font-family="sans" font-size="10.00">vcftools_filter</text>
</g>
<!-- 14&#45;&gt;13 -->
<g id="edge21" class="edge">
<title>14&#45;&gt;13</title>
<path fill="none" stroke="grey" stroke-width="2" d="M478.89,-719.34C477.57,-712.75 476.04,-705.08 474.55,-697.67"/>
<polygon fill="grey" stroke="grey" stroke-width="2" points="477.99,-696.99 472.59,-687.87 471.12,-698.36 477.99,-696.99"/>
</g>
<!-- 15&#45;&gt;14 -->
<g id="edge22" class="edge">
<title>15&#45;&gt;14</title>
<path fill="none" stroke="grey" stroke-width="2" d="M485.41,-791.34C485.03,-784.75 484.6,-777.08 484.17,-769.67"/>
<polygon fill="grey" stroke="grey" stroke-width="2" points="487.68,-769.71 483.62,-759.92 480.69,-770.11 487.68,-769.71"/>
</g>
<!-- 16 -->
<g id="node17" class="node">
<title>16</title>
<path fill="none" stroke="#d85656" stroke-width="2" stroke-dasharray="5,2" d="M111.54,-684C111.54,-684 57.29,-684 57.29,-684 51.29,-684 45.29,-678 45.29,-672 45.29,-672 45.29,-660 45.29,-660 45.29,-654 51.29,-648 57.29,-648 57.29,-648 111.54,-648 111.54,-648 117.54,-648 123.54,-654 123.54,-660 123.54,-660 123.54,-672 123.54,-672 123.54,-678 117.54,-684 111.54,-684"/>
<text text-anchor="middle" x="84.42" y="-662.88" font-family="sans" font-size="10.00">bcftools_sort</text>
</g>
<!-- 16&#45;&gt;12 -->
<g id="edge17" class="edge">
<title>16&#45;&gt;12</title>
<path fill="none" stroke="grey" stroke-width="2" d="M109.4,-647.15C120.81,-639.01 134.52,-629.22 146.96,-620.33"/>
<polygon fill="grey" stroke="grey" stroke-width="2" points="148.92,-623.23 155.02,-614.57 144.85,-617.54 148.92,-623.23"/>
</g>
<!-- 16&#45;&gt;28 -->
<g id="edge37" class="edge">
<title>16&#45;&gt;28</title>
<path fill="none" stroke="grey" stroke-width="2" d="M124.44,-650.66C127.14,-649.75 129.81,-648.85 132.42,-648 168.18,-636.29 208.35,-624.12 241.27,-614.4"/>
<polygon fill="grey" stroke="grey" stroke-width="2" points="242,-617.83 250.6,-611.66 240.02,-611.12 242,-617.83"/>
</g>
<!-- 17 -->
<g id="node18" class="node">
<title>17</title>
<path fill="none" stroke="#569ad8" stroke-width="2" stroke-dasharray="5,2" d="M103.42,-756C103.42,-756 45.42,-756 45.42,-756 39.42,-756 33.42,-750 33.42,-744 33.42,-744 33.42,-732 33.42,-732 33.42,-726 39.42,-720 45.42,-720 45.42,-720 103.42,-720 103.42,-720 109.42,-720 115.42,-726 115.42,-732 115.42,-732 115.42,-744 115.42,-744 115.42,-750 109.42,-756 103.42,-756"/>
<text text-anchor="middle" x="74.42" y="-734.88" font-family="sans" font-size="10.00">vcftools_filter</text>
</g>
<!-- 17&#45;&gt;16 -->
<g id="edge24" class="edge">
<title>17&#45;&gt;16</title>
<path fill="none" stroke="grey" stroke-width="2" d="M76.94,-719.34C77.88,-712.75 78.98,-705.08 80.04,-697.67"/>
<polygon fill="grey" stroke="grey" stroke-width="2" points="83.48,-698.29 81.43,-687.9 76.55,-697.3 83.48,-698.29"/>
</g>
<!-- 18&#45;&gt;17 -->
<g id="edge25" class="edge">
<title>18&#45;&gt;17</title>
<path fill="none" stroke="grey" stroke-width="2" d="M73.67,-791.34C73.77,-784.75 73.88,-777.08 73.98,-769.67"/>
<polygon fill="grey" stroke="grey" stroke-width="2" points="77.48,-769.98 74.12,-759.93 70.48,-769.88 77.48,-769.98"/>
</g>
<!-- 19 -->
<g id="node20" class="node">
<title>19</title>
<path fill="none" stroke="#d85656" stroke-width="2" stroke-dasharray="5,2" d="M207.54,-684C207.54,-684 153.29,-684 153.29,-684 147.29,-684 141.29,-678 141.29,-672 141.29,-672 141.29,-660 141.29,-660 141.29,-654 147.29,-648 153.29,-648 153.29,-648 207.54,-648 207.54,-648 213.54,-648 219.54,-654 219.54,-660 219.54,-660 219.54,-672 219.54,-672 219.54,-678 213.54,-684 207.54,-684"/>
<text text-anchor="middle" x="180.42" y="-662.88" font-family="sans" font-size="10.00">bcftools_sort</text>
</g>
<!-- 19&#45;&gt;12 -->
<g id="edge18" class="edge">
<title>19&#45;&gt;12</title>
<path fill="none" stroke="grey" stroke-width="2" d="M180.92,-647.34C181.11,-640.75 181.33,-633.08 181.54,-625.67"/>
<polygon fill="grey" stroke="grey" stroke-width="2" points="185.03,-626.02 181.82,-615.93 178.04,-625.82 185.03,-626.02"/>
</g>
<!-- 19&#45;&gt;28 -->
<g id="edge38" class="edge">
<title>19&#45;&gt;28</title>
<path fill="none" stroke="grey" stroke-width="2" d="M213.05,-647.15C228.7,-638.6 247.67,-628.22 264.56,-618.99"/>
<polygon fill="grey" stroke="grey" stroke-width="2" points="266.1,-622.13 273.19,-614.26 262.74,-615.99 266.1,-622.13"/>
</g>
<!-- 20 -->
<g id="node21" class="node">
<title>20</title>
<path fill="none" stroke="#569ad8" stroke-width="2" stroke-dasharray="5,2" d="M205.42,-756C205.42,-756 147.42,-756 147.42,-756 141.42,-756 135.42,-750 135.42,-744 135.42,-744 135.42,-732 135.42,-732 135.42,-726 141.42,-720 147.42,-720 147.42,-720 205.42,-720 205.42,-720 211.42,-720 217.42,-726 217.42,-732 217.42,-732 217.42,-744 217.42,-744 217.42,-750 211.42,-756 205.42,-756"/>
<text text-anchor="middle" x="176.42" y="-734.88" font-family="sans" font-size="10.00">vcftools_filter</text>
</g>
<!-- 20&#45;&gt;19 -->
<g id="edge27" class="edge">
<title>20&#45;&gt;19</title>
<path fill="none" stroke="grey" stroke-width="2" d="M177.43,-719.34C177.8,-712.75 178.24,-705.08 178.67,-697.67"/>
<polygon fill="grey" stroke="grey" stroke-width="2" points="182.15,-698.11 179.22,-687.92 175.16,-697.71 182.15,-698.11"/>
</g>
<!-- 21&#45;&gt;20 -->
<g id="edge28" class="edge">
<title>21&#45;&gt;20</title>
<path fill="none" stroke="grey" stroke-width="2" d="M176.42,-791.34C176.42,-784.75 176.42,-777.08 176.42,-769.67"/>
<polygon fill="grey" stroke="grey" stroke-width="2" points="179.92,-769.93 176.42,-759.93 172.92,-769.93 179.92,-769.93"/>
</g>
<!-- 22 -->
<g id="node23" class="node">
<title>22</title>
<path fill="none" stroke="#d85656" stroke-width="2" stroke-dasharray="5,2" d="M303.54,-684C303.54,-684 249.29,-684 249.29,-684 243.29,-684 237.29,-678 237.29,-672 237.29,-672 237.29,-660 237.29,-660 237.29,-654 243.29,-648 249.29,-648 249.29,-648 303.54,-648 303.54,-648 309.54,-648 315.54,-654 315.54,-660 315.54,-660 315.54,-672 315.54,-672 315.54,-678 309.54,-684 303.54,-684"/>
<text text-anchor="middle" x="276.42" y="-662.88" font-family="sans" font-size="10.00">bcftools_sort</text>
</g>
<!-- 22&#45;&gt;12 -->
<g id="edge19" class="edge">
<title>22&#45;&gt;12</title>
<path fill="none" stroke="grey" stroke-width="2" d="M252.7,-647.34C241.76,-639.19 228.57,-629.37 216.59,-620.45"/>
<polygon fill="grey" stroke="grey" stroke-width="2" points="219,-617.88 208.89,-614.71 214.82,-623.49 219,-617.88"/>
</g>
<!-- 22&#45;&gt;28 -->
<g id="edge39" class="edge">
<title>22&#45;&gt;28</title>
<path fill="none" stroke="grey" stroke-width="2" d="M284.49,-647.34C287.65,-640.43 291.36,-632.31 294.91,-624.56"/>
<polygon fill="grey" stroke="grey" stroke-width="2" points="298,-626.2 298.98,-615.65 291.64,-623.29 298,-626.2"/>
</g>
<!-- 23 -->
<g id="node24" class="node">
<title>23</title>
<path fill="none" stroke="#569ad8" stroke-width="2" stroke-dasharray="5,2" d="M305.42,-756C305.42,-756 247.42,-756 247.42,-756 241.42,-756 235.42,-750 235.42,-744 235.42,-744 235.42,-732 235.42,-732 235.42,-726 241.42,-720 247.42,-720 247.42,-720 305.42,-720 305.42,-720 311.42,-720 317.42,-726 317.42,-732 317.42,-732 317.42,-744 317.42,-744 317.42,-750 311.42,-756 305.42,-756"/>
<text text-anchor="middle" x="276.42" y="-734.88" font-family="sans" font-size="10.00">vcftools_filter</text>
</g>
<!-- 23&#45;&gt;22 -->
<g id="edge30" class="edge">
<title>23&#45;&gt;22</title>
<path fill="none" stroke="grey" stroke-width="2" d="M276.42,-719.34C276.42,-712.75 276.42,-705.08 276.42,-697.67"/>
<polygon fill="grey" stroke="grey" stroke-width="2" points="279.92,-697.93 276.42,-687.93 272.92,-697.93 279.92,-697.93"/>
</g>
<!-- 24&#45;&gt;23 -->
<g id="edge31" class="edge">
<title>24&#45;&gt;23</title>
<path fill="none" stroke="grey" stroke-width="2" d="M276.42,-791.34C276.42,-784.75 276.42,-777.08 276.42,-769.67"/>
<polygon fill="grey" stroke="grey" stroke-width="2" points="279.92,-769.93 276.42,-759.93 272.92,-769.93 279.92,-769.93"/>
</g>
<!-- 25 -->
<g id="node26" class="node">
<title>25</title>
<path fill="none" stroke="#d85656" stroke-width="2" stroke-dasharray="5,2" d="M399.54,-684C399.54,-684 345.29,-684 345.29,-684 339.29,-684 333.29,-678 333.29,-672 333.29,-672 333.29,-660 333.29,-660 333.29,-654 339.29,-648 345.29,-648 345.29,-648 399.54,-648 399.54,-648 405.54,-648 411.54,-654 411.54,-660 411.54,-660 411.54,-672 411.54,-672 411.54,-678 405.54,-684 399.54,-684"/>
<text text-anchor="middle" x="372.42" y="-662.88" font-family="sans" font-size="10.00">bcftools_sort</text>
</g>
<!-- 25&#45;&gt;12 -->
<g id="edge20" class="edge">
<title>25&#45;&gt;12</title>
<path fill="none" stroke="grey" stroke-width="2" d="M332.59,-650.33C306.69,-640.78 272.42,-628.16 243.16,-617.38"/>
<polygon fill="grey" stroke="grey" stroke-width="2" points="244.4,-614.1 233.8,-613.93 241.98,-620.67 244.4,-614.1"/>
</g>
<!-- 25&#45;&gt;28 -->
<g id="edge40" class="edge">
<title>25&#45;&gt;28</title>
<path fill="none" stroke="grey" stroke-width="2" d="M356.27,-647.34C349.35,-639.77 341.11,-630.75 333.43,-622.35"/>
<polygon fill="grey" stroke="grey" stroke-width="2" points="336.16,-620.15 326.83,-615.14 330.99,-624.88 336.16,-620.15"/>
</g>
<!-- 26 -->
<g id="node27" class="node">
<title>26</title>
<path fill="none" stroke="#569ad8" stroke-width="2" stroke-dasharray="5,2" d="M407.42,-756C407.42,-756 349.42,-756 349.42,-756 343.42,-756 337.42,-750 337.42,-744 337.42,-744 337.42,-732 337.42,-732 337.42,-726 343.42,-720 349.42,-720 349.42,-720 407.42,-720 407.42,-720 413.42,-720 419.42,-726 419.42,-732 419.42,-732 419.42,-744 419.42,-744 419.42,-750 413.42,-756 407.42,-756"/>
<text text-anchor="middle" x="378.42" y="-734.88" font-family="sans" font-size="10.00">vcftools_filter</text>
</g>
<!-- 26&#45;&gt;25 -->
<g id="edge33" class="edge">
<title>26&#45;&gt;25</title>
<path fill="none" stroke="grey" stroke-width="2" d="M376.91,-719.34C376.34,-712.75 375.68,-705.08 375.05,-697.67"/>
<polygon fill="grey" stroke="grey" stroke-width="2" points="378.55,-697.58 374.21,-687.92 371.58,-698.18 378.55,-697.58"/>
</g>
<!-- 27&#45;&gt;26 -->
<g id="edge34" class="edge">
<title>27&#45;&gt;26</title>
<path fill="none" stroke="grey" stroke-width="2" d="M379.91,-791.34C379.73,-784.75 379.51,-777.08 379.3,-769.67"/>
<polygon fill="grey" stroke="grey" stroke-width="2" points="382.8,-769.82 379.02,-759.93 375.8,-770.02 382.8,-769.82"/>
</g>
<!-- 28&#45;&gt;11 -->
<g id="edge15" class="edge">
<title>28&#45;&gt;11</title>
<path fill="none" stroke="grey" stroke-width="2" d="M277.57,-575.15C262.92,-566.68 245.19,-556.42 229.35,-547.25"/>
<polygon fill="grey" stroke="grey" stroke-width="2" points="231.24,-544.31 220.83,-542.33 227.73,-550.37 231.24,-544.31"/>
</g>
<!-- 29&#45;&gt;10 -->
<g id="edge13" class="edge">
<title>29&#45;&gt;10</title>
<path fill="none" stroke="grey" stroke-width="2" d="M174.77,-431.34C168.14,-423.85 160.26,-414.95 152.89,-406.63"/>
<polygon fill="grey" stroke="grey" stroke-width="2" points="155.53,-404.33 146.28,-399.17 150.29,-408.97 155.53,-404.33"/>
</g>
<!-- 30 -->
<g id="node31" class="node">
<title>30</title>
<path fill="none" stroke="#d87556" stroke-width="2" d="M182.79,-252C182.79,-252 112.04,-252 112.04,-252 106.04,-252 100.04,-246 100.04,-240 100.04,-240 100.04,-228 100.04,-228 100.04,-222 106.04,-216 112.04,-216 112.04,-216 182.79,-216 182.79,-216 188.79,-216 194.79,-222 194.79,-228 194.79,-228 194.79,-240 194.79,-240 194.79,-246 188.79,-252 182.79,-252"/>
<text text-anchor="middle" x="147.42" y="-230.88" font-family="sans" font-size="10.00">piawka_agg_het</text>
</g>
<!-- 30&#45;&gt;2 -->
<g id="edge5" class="edge">
<title>30&#45;&gt;2</title>
<path fill="none" stroke="grey" stroke-width="2" d="M128.49,-215.34C120.12,-207.52 110.09,-198.16 100.85,-189.53"/>
<polygon fill="grey" stroke="grey" stroke-width="2" points="103.51,-187.23 93.81,-182.97 98.74,-192.35 103.51,-187.23"/>
</g>
<!-- 31&#45;&gt;30 -->
<g id="edge42" class="edge">
<title>31&#45;&gt;30</title>
<path fill="none" stroke="grey" stroke-width="2" d="M147.42,-287.34C147.42,-280.75 147.42,-273.08 147.42,-265.67"/>
<polygon fill="grey" stroke="grey" stroke-width="2" points="150.92,-265.93 147.42,-255.93 143.92,-265.93 150.92,-265.93"/>
</g>
</g>
</svg>
