<?xml version="1.0" encoding="UTF-8" standalone="no"?>
<!DOCTYPE svg PUBLIC "-//W3C//DTD SVG 1.1//EN"
 "http://www.w3.org/Graphics/SVG/1.1/DTD/svg11.dtd">
<!-- Generated by graphviz version 11.0.0 (20240519.1550)
 -->
<!-- Title: snakemake_dag Pages: 1 -->
<svg width="606pt" height="1196pt"
 viewBox="0.00 0.00 606.00 1196.00" xmlns="http://www.w3.org/2000/svg" xmlns:xlink="http://www.w3.org/1999/xlink">
<g id="graph0" class="graph" transform="scale(1 1) rotate(0) translate(4 1192)">
<title>snakemake_dag</title>
<polygon fill="white" stroke="none" points="-4,4 -4,-1192 602,-1192 602,4 -4,4"/>
<!-- 0 -->
<g id="node1" class="node">
<title>0</title>
<path fill="none" stroke="#56d8a2" stroke-width="2" d="M276,-36C276,-36 246,-36 246,-36 240,-36 234,-30 234,-24 234,-24 234,-12 234,-12 234,-6 240,0 246,0 246,0 276,0 276,0 282,0 288,-6 288,-12 288,-12 288,-24 288,-24 288,-30 282,-36 276,-36"/>
<text text-anchor="middle" x="261" y="-14.88" font-family="sans" font-size="10.00">all</text>
</g>
<!-- 1 -->
<g id="node2" class="node">
<title>1</title>
<path fill="none" stroke="#56d8c1" stroke-width="2" d="M293,-108C293,-108 229,-108 229,-108 223,-108 217,-102 217,-96 217,-96 217,-84 217,-84 217,-78 223,-72 229,-72 229,-72 293,-72 293,-72 299,-72 305,-78 305,-84 305,-84 305,-96 305,-96 305,-102 299,-108 293,-108"/>
<text text-anchor="middle" x="261" y="-86.88" font-family="sans" font-size="10.00">piawka_agg_pi</text>
</g>
<!-- 1&#45;&gt;0 -->
<g id="edge1" class="edge">
<title>1&#45;&gt;0</title>
<path fill="none" stroke="grey" stroke-width="2" d="M261,-71.34C261,-64.75 261,-57.08 261,-49.67"/>
<polygon fill="grey" stroke="grey" stroke-width="2" points="264.5,-49.93 261,-39.93 257.5,-49.93 264.5,-49.93"/>
</g>
<!-- 2 -->
<g id="node3" class="node">
<title>2</title>
<path fill="none" stroke="#56b1d8" stroke-width="2" d="M281.38,-180C281.38,-180 240.62,-180 240.62,-180 234.62,-180 228.62,-174 228.62,-168 228.62,-168 228.62,-156 228.62,-156 228.62,-150 234.62,-144 240.62,-144 240.62,-144 281.38,-144 281.38,-144 287.38,-144 293.38,-150 293.38,-156 293.38,-156 293.38,-168 293.38,-168 293.38,-174 287.38,-180 281.38,-180"/>
<text text-anchor="middle" x="261" y="-158.88" font-family="sans" font-size="10.00">piawka_pi</text>
</g>
<!-- 2&#45;&gt;1 -->
<g id="edge2" class="edge">
<title>2&#45;&gt;1</title>
<path fill="none" stroke="grey" stroke-width="2" d="M261,-143.34C261,-136.75 261,-129.08 261,-121.67"/>
<polygon fill="grey" stroke="grey" stroke-width="2" points="264.5,-121.93 261,-111.93 257.5,-121.93 264.5,-121.93"/>
</g>
<!-- 3 -->
<g id="node4" class="node">
<title>3</title>
<path fill="none" stroke="#9fd856" stroke-width="2" stroke-dasharray="5,2" d="M318.38,-1044C318.38,-1044 277.62,-1044 277.62,-1044 271.62,-1044 265.62,-1038 265.62,-1032 265.62,-1032 265.62,-1020 265.62,-1020 265.62,-1014 271.62,-1008 277.62,-1008 277.62,-1008 318.38,-1008 318.38,-1008 324.38,-1008 330.38,-1014 330.38,-1020 330.38,-1020 330.38,-1032 330.38,-1032 330.38,-1038 324.38,-1044 318.38,-1044"/>
<text text-anchor="middle" x="298" y="-1022.88" font-family="sans" font-size="10.00">fasta2bed</text>
</g>
<!-- 3&#45;&gt;2 -->
<g id="edge3" class="edge">
<title>3&#45;&gt;2</title>
<path fill="none" stroke="grey" stroke-width="2" d="M265.05,-1021.78C204.2,-1015.25 77.31,-998.78 43,-972 8.37,-944.97 0,-926.93 0,-883 0,-883 0,-883 0,-305 0,-208.28 140,-177.07 214.93,-167.29"/>
<polygon fill="grey" stroke="grey" stroke-width="2" points="215.17,-170.78 224.67,-166.11 214.33,-163.83 215.17,-170.78"/>
</g>
<!-- 15 -->
<g id="node16" class="node">
<title>15</title>
<path fill="none" stroke="#d85656" stroke-width="2" stroke-dasharray="5,2" d="M122.38,-972C122.38,-972 63.62,-972 63.62,-972 57.62,-972 51.62,-966 51.62,-960 51.62,-960 51.62,-948 51.62,-948 51.62,-942 57.62,-936 63.62,-936 63.62,-936 122.38,-936 122.38,-936 128.38,-936 134.38,-942 134.38,-948 134.38,-948 134.38,-960 134.38,-960 134.38,-966 128.38,-972 122.38,-972"/>
<text text-anchor="middle" x="93" y="-957.25" font-family="sans" font-size="10.00">bcftools_call</text>
<text text-anchor="middle" x="93" y="-944.5" font-family="sans" font-size="10.00">xyz: FG04258</text>
</g>
<!-- 3&#45;&gt;15 -->
<g id="edge23" class="edge">
<title>3&#45;&gt;15</title>
<path fill="none" stroke="grey" stroke-width="2" d="M265.06,-1013.75C233.34,-1002.92 184.78,-986.34 147.32,-973.55"/>
<polygon fill="grey" stroke="grey" stroke-width="2" points="148.55,-970.27 137.95,-970.35 146.29,-976.89 148.55,-970.27"/>
</g>
<!-- 21 -->
<g id="node22" class="node">
<title>21</title>
<path fill="none" stroke="#d85656" stroke-width="2" stroke-dasharray="5,2" d="M328.5,-972C328.5,-972 267.5,-972 267.5,-972 261.5,-972 255.5,-966 255.5,-960 255.5,-960 255.5,-948 255.5,-948 255.5,-942 261.5,-936 267.5,-936 267.5,-936 328.5,-936 328.5,-936 334.5,-936 340.5,-942 340.5,-948 340.5,-948 340.5,-960 340.5,-960 340.5,-966 334.5,-972 328.5,-972"/>
<text text-anchor="middle" x="298" y="-957.25" font-family="sans" font-size="10.00">bcftools_call</text>
<text text-anchor="middle" x="298" y="-944.5" font-family="sans" font-size="10.00">xyz: MP_AC48</text>
</g>
<!-- 3&#45;&gt;21 -->
<g id="edge34" class="edge">
<title>3&#45;&gt;21</title>
<path fill="none" stroke="grey" stroke-width="2" d="M298,-1007.34C298,-1000.75 298,-993.08 298,-985.67"/>
<polygon fill="grey" stroke="grey" stroke-width="2" points="301.5,-985.93 298,-975.93 294.5,-985.93 301.5,-985.93"/>
</g>
<!-- 24 -->
<g id="node25" class="node">
<title>24</title>
<path fill="none" stroke="#d85656" stroke-width="2" stroke-dasharray="5,2" d="M225.5,-972C225.5,-972 164.5,-972 164.5,-972 158.5,-972 152.5,-966 152.5,-960 152.5,-960 152.5,-948 152.5,-948 152.5,-942 158.5,-936 164.5,-936 164.5,-936 225.5,-936 225.5,-936 231.5,-936 237.5,-942 237.5,-948 237.5,-948 237.5,-960 237.5,-960 237.5,-966 231.5,-972 225.5,-972"/>
<text text-anchor="middle" x="195" y="-957.25" font-family="sans" font-size="10.00">bcftools_call</text>
<text text-anchor="middle" x="195" y="-944.5" font-family="sans" font-size="10.00">xyz: MP_BR24</text>
</g>
<!-- 3&#45;&gt;24 -->
<g id="edge37" class="edge">
<title>3&#45;&gt;24</title>
<path fill="none" stroke="grey" stroke-width="2" d="M271.74,-1007.15C259.64,-998.93 245.06,-989.02 231.87,-980.06"/>
<polygon fill="grey" stroke="grey" stroke-width="2" points="233.95,-977.24 223.71,-974.51 230.02,-983.03 233.95,-977.24"/>
</g>
<!-- 27 -->
<g id="node28" class="node">
<title>27</title>
<path fill="none" stroke="#d85656" stroke-width="2" stroke-dasharray="5,2" d="M425.5,-972C425.5,-972 370.5,-972 370.5,-972 364.5,-972 358.5,-966 358.5,-960 358.5,-960 358.5,-948 358.5,-948 358.5,-942 364.5,-936 370.5,-936 370.5,-936 425.5,-936 425.5,-936 431.5,-936 437.5,-942 437.5,-948 437.5,-948 437.5,-960 437.5,-960 437.5,-966 431.5,-972 425.5,-972"/>
<text text-anchor="middle" x="398" y="-957.25" font-family="sans" font-size="10.00">bcftools_call</text>
<text text-anchor="middle" x="398" y="-944.5" font-family="sans" font-size="10.00">xyz: MP_D48</text>
</g>
<!-- 3&#45;&gt;27 -->
<g id="edge40" class="edge">
<title>3&#45;&gt;27</title>
<path fill="none" stroke="grey" stroke-width="2" d="M323.49,-1007.15C335.25,-998.93 349.4,-989.02 362.2,-980.06"/>
<polygon fill="grey" stroke="grey" stroke-width="2" points="363.89,-983.15 370.07,-974.55 359.87,-977.42 363.89,-983.15"/>
</g>
<!-- 30 -->
<g id="node31" class="node">
<title>30</title>
<path fill="none" stroke="#d85656" stroke-width="2" stroke-dasharray="5,2" d="M536.25,-972C536.25,-972 467.75,-972 467.75,-972 461.75,-972 455.75,-966 455.75,-960 455.75,-960 455.75,-948 455.75,-948 455.75,-942 461.75,-936 467.75,-936 467.75,-936 536.25,-936 536.25,-936 542.25,-936 548.25,-942 548.25,-948 548.25,-948 548.25,-960 548.25,-960 548.25,-966 542.25,-972 536.25,-972"/>
<text text-anchor="middle" x="502" y="-957.25" font-family="sans" font-size="10.00">bcftools_call</text>
<text text-anchor="middle" x="502" y="-944.5" font-family="sans" font-size="10.00">xyz: MP_GBR01</text>
</g>
<!-- 3&#45;&gt;30 -->
<g id="edge43" class="edge">
<title>3&#45;&gt;30</title>
<path fill="none" stroke="grey" stroke-width="2" d="M331.23,-1013.6C361.46,-1003.23 406.77,-987.68 443.12,-975.2"/>
<polygon fill="grey" stroke="grey" stroke-width="2" points="443.89,-978.64 452.21,-972.09 441.61,-972.02 443.89,-978.64"/>
</g>
<!-- 38 -->
<g id="node39" class="node">
<title>38</title>
<path fill="none" stroke="#56d863" stroke-width="2" stroke-dasharray="5,2" d="M359.75,-324C359.75,-324 312.25,-324 312.25,-324 306.25,-324 300.25,-318 300.25,-312 300.25,-312 300.25,-300 300.25,-300 300.25,-294 306.25,-288 312.25,-288 312.25,-288 359.75,-288 359.75,-288 365.75,-288 371.75,-294 371.75,-300 371.75,-300 371.75,-312 371.75,-312 371.75,-318 365.75,-324 359.75,-324"/>
<text text-anchor="middle" x="336" y="-302.88" font-family="sans" font-size="10.00">piawka_het</text>
</g>
<!-- 3&#45;&gt;38 -->
<g id="edge63" class="edge">
<title>3&#45;&gt;38</title>
<path fill="none" stroke="grey" stroke-width="2" d="M331.03,-1021.95C392.71,-1015.67 522.3,-999.52 557,-972 591.12,-944.94 598,-926.55 598,-883 598,-883 598,-883 598,-449 598,-353.26 461.11,-321.74 385.22,-311.61"/>
<polygon fill="grey" stroke="grey" stroke-width="2" points="386.06,-308.19 375.71,-310.44 385.2,-315.14 386.06,-308.19"/>
</g>
<!-- 4 -->
<g id="node5" class="node">
<title>4</title>
<path fill="none" stroke="#56d882" stroke-width="2" stroke-dasharray="5,2" d="M313,-1116C313,-1116 283,-1116 283,-1116 277,-1116 271,-1110 271,-1104 271,-1104 271,-1092 271,-1092 271,-1086 277,-1080 283,-1080 283,-1080 313,-1080 313,-1080 319,-1080 325,-1086 325,-1092 325,-1092 325,-1104 325,-1104 325,-1110 319,-1116 313,-1116"/>
<text text-anchor="middle" x="298" y="-1094.88" font-family="sans" font-size="10.00">gstacks</text>
</g>
<!-- 4&#45;&gt;3 -->
<g id="edge6" class="edge">
<title>4&#45;&gt;3</title>
<path fill="none" stroke="grey" stroke-width="2" d="M298,-1079.34C298,-1072.75 298,-1065.08 298,-1057.67"/>
<polygon fill="grey" stroke="grey" stroke-width="2" points="301.5,-1057.93 298,-1047.93 294.5,-1057.93 301.5,-1057.93"/>
</g>
<!-- 5 -->
<g id="node6" class="node">
<title>5</title>
<path fill="none" stroke="#d87556" stroke-width="2" stroke-dasharray="5,2" d="M110.62,-1188C110.62,-1188 41.38,-1188 41.38,-1188 35.38,-1188 29.38,-1182 29.38,-1176 29.38,-1176 29.38,-1164 29.38,-1164 29.38,-1158 35.38,-1152 41.38,-1152 41.38,-1152 110.62,-1152 110.62,-1152 116.62,-1152 122.62,-1158 122.62,-1164 122.62,-1164 122.62,-1176 122.62,-1176 122.62,-1182 116.62,-1188 110.62,-1188"/>
<text text-anchor="middle" x="76" y="-1173.25" font-family="sans" font-size="10.00">samtools_index</text>
<text text-anchor="middle" x="76" y="-1160.5" font-family="sans" font-size="10.00">xyz: FG04258</text>
</g>
<!-- 5&#45;&gt;4 -->
<g id="edge7" class="edge">
<title>5&#45;&gt;4</title>
<path fill="none" stroke="grey" stroke-width="2" d="M123.62,-1153.98C163.69,-1141.35 220.31,-1123.5 258.05,-1111.6"/>
<polygon fill="grey" stroke="grey" stroke-width="2" points="258.7,-1115.06 267.18,-1108.72 256.59,-1108.39 258.7,-1115.06"/>
</g>
<!-- 6 -->
<g id="node7" class="node">
<title>6</title>
<path fill="none" stroke="#d87556" stroke-width="2" stroke-dasharray="5,2" d="M221.62,-1188C221.62,-1188 152.38,-1188 152.38,-1188 146.38,-1188 140.38,-1182 140.38,-1176 140.38,-1176 140.38,-1164 140.38,-1164 140.38,-1158 146.38,-1152 152.38,-1152 152.38,-1152 221.62,-1152 221.62,-1152 227.62,-1152 233.62,-1158 233.62,-1164 233.62,-1164 233.62,-1176 233.62,-1176 233.62,-1182 227.62,-1188 221.62,-1188"/>
<text text-anchor="middle" x="187" y="-1173.25" font-family="sans" font-size="10.00">samtools_index</text>
<text text-anchor="middle" x="187" y="-1160.5" font-family="sans" font-size="10.00">xyz: MP_AC48</text>
</g>
<!-- 6&#45;&gt;4 -->
<g id="edge8" class="edge">
<title>6&#45;&gt;4</title>
<path fill="none" stroke="grey" stroke-width="2" d="M215.3,-1151.15C228.71,-1142.7 244.93,-1132.47 259.45,-1123.31"/>
<polygon fill="grey" stroke="grey" stroke-width="2" points="260.99,-1126.48 267.58,-1118.18 257.25,-1120.56 260.99,-1126.48"/>
</g>
<!-- 7 -->
<g id="node8" class="node">
<title>7</title>
<path fill="none" stroke="#d87556" stroke-width="2" stroke-dasharray="5,2" d="M332.62,-1188C332.62,-1188 263.38,-1188 263.38,-1188 257.38,-1188 251.38,-1182 251.38,-1176 251.38,-1176 251.38,-1164 251.38,-1164 251.38,-1158 257.38,-1152 263.38,-1152 263.38,-1152 332.62,-1152 332.62,-1152 338.62,-1152 344.62,-1158 344.62,-1164 344.62,-1164 344.62,-1176 344.62,-1176 344.62,-1182 338.62,-1188 332.62,-1188"/>
<text text-anchor="middle" x="298" y="-1173.25" font-family="sans" font-size="10.00">samtools_index</text>
<text text-anchor="middle" x="298" y="-1160.5" font-family="sans" font-size="10.00">xyz: MP_BR24</text>
</g>
<!-- 7&#45;&gt;4 -->
<g id="edge9" class="edge">
<title>7&#45;&gt;4</title>
<path fill="none" stroke="grey" stroke-width="2" d="M298,-1151.34C298,-1144.75 298,-1137.08 298,-1129.67"/>
<polygon fill="grey" stroke="grey" stroke-width="2" points="301.5,-1129.93 298,-1119.93 294.5,-1129.93 301.5,-1129.93"/>
</g>
<!-- 8 -->
<g id="node9" class="node">
<title>8</title>
<path fill="none" stroke="#d87556" stroke-width="2" stroke-dasharray="5,2" d="M443.62,-1188C443.62,-1188 374.38,-1188 374.38,-1188 368.38,-1188 362.38,-1182 362.38,-1176 362.38,-1176 362.38,-1164 362.38,-1164 362.38,-1158 368.38,-1152 374.38,-1152 374.38,-1152 443.62,-1152 443.62,-1152 449.62,-1152 455.62,-1158 455.62,-1164 455.62,-1164 455.62,-1176 455.62,-1176 455.62,-1182 449.62,-1188 443.62,-1188"/>
<text text-anchor="middle" x="409" y="-1173.25" font-family="sans" font-size="10.00">samtools_index</text>
<text text-anchor="middle" x="409" y="-1160.5" font-family="sans" font-size="10.00">xyz: MP_D48</text>
</g>
<!-- 8&#45;&gt;4 -->
<g id="edge10" class="edge">
<title>8&#45;&gt;4</title>
<path fill="none" stroke="grey" stroke-width="2" d="M380.7,-1151.15C367.29,-1142.7 351.07,-1132.47 336.55,-1123.31"/>
<polygon fill="grey" stroke="grey" stroke-width="2" points="338.75,-1120.56 328.42,-1118.18 335.01,-1126.48 338.75,-1120.56"/>
</g>
<!-- 9 -->
<g id="node10" class="node">
<title>9</title>
<path fill="none" stroke="#d87556" stroke-width="2" stroke-dasharray="5,2" d="M554.62,-1188C554.62,-1188 485.38,-1188 485.38,-1188 479.38,-1188 473.38,-1182 473.38,-1176 473.38,-1176 473.38,-1164 473.38,-1164 473.38,-1158 479.38,-1152 485.38,-1152 485.38,-1152 554.62,-1152 554.62,-1152 560.62,-1152 566.62,-1158 566.62,-1164 566.62,-1164 566.62,-1176 566.62,-1176 566.62,-1182 560.62,-1188 554.62,-1188"/>
<text text-anchor="middle" x="520" y="-1173.25" font-family="sans" font-size="10.00">samtools_index</text>
<text text-anchor="middle" x="520" y="-1160.5" font-family="sans" font-size="10.00">xyz: MP_GBR01</text>
</g>
<!-- 9&#45;&gt;4 -->
<g id="edge11" class="edge">
<title>9&#45;&gt;4</title>
<path fill="none" stroke="grey" stroke-width="2" d="M472.38,-1153.98C432.31,-1141.35 375.69,-1123.5 337.95,-1111.6"/>
<polygon fill="grey" stroke="grey" stroke-width="2" points="339.41,-1108.39 328.82,-1108.72 337.3,-1115.06 339.41,-1108.39"/>
</g>
<!-- 10 -->
<g id="node11" class="node">
<title>10</title>
<path fill="none" stroke="#bed856" stroke-width="2" stroke-dasharray="5,2" d="M335.5,-396C335.5,-396 262.5,-396 262.5,-396 256.5,-396 250.5,-390 250.5,-384 250.5,-384 250.5,-372 250.5,-372 250.5,-366 256.5,-360 262.5,-360 262.5,-360 335.5,-360 335.5,-360 341.5,-360 347.5,-366 347.5,-372 347.5,-372 347.5,-384 347.5,-384 347.5,-390 341.5,-396 335.5,-396"/>
<text text-anchor="middle" x="299" y="-374.88" font-family="sans" font-size="10.00">bcftools_merge2</text>
</g>
<!-- 10&#45;&gt;2 -->
<g id="edge4" class="edge">
<title>10&#45;&gt;2</title>
<path fill="none" stroke="grey" stroke-width="2" d="M295.83,-359.12C289.34,-322.62 274.52,-239.13 266.46,-193.74"/>
<polygon fill="grey" stroke="grey" stroke-width="2" points="269.92,-193.19 264.72,-183.96 263.02,-194.42 269.92,-193.19"/>
</g>
<!-- 10&#45;&gt;38 -->
<g id="edge64" class="edge">
<title>10&#45;&gt;38</title>
<path fill="none" stroke="grey" stroke-width="2" d="M308.34,-359.34C312.03,-352.34 316.38,-344.12 320.52,-336.28"/>
<polygon fill="grey" stroke="grey" stroke-width="2" points="323.54,-338.05 325.12,-327.58 317.36,-334.78 323.54,-338.05"/>
</g>
<!-- 11 -->
<g id="node12" class="node">
<title>11</title>
<path fill="none" stroke="#68d856" stroke-width="2" stroke-dasharray="5,2" d="M278.12,-468C278.12,-468 187.88,-468 187.88,-468 181.88,-468 175.88,-462 175.88,-456 175.88,-456 175.88,-444 175.88,-444 175.88,-438 181.88,-432 187.88,-432 187.88,-432 278.12,-432 278.12,-432 284.12,-432 290.12,-438 290.12,-444 290.12,-444 290.12,-456 290.12,-456 290.12,-462 284.12,-468 278.12,-468"/>
<text text-anchor="middle" x="233" y="-453.25" font-family="sans" font-size="10.00">bcftools_submerge2</text>
<text text-anchor="middle" x="233" y="-440.5" font-family="sans" font-size="10.00">i: 0</text>
</g>
<!-- 11&#45;&gt;10 -->
<g id="edge12" class="edge">
<title>11&#45;&gt;10</title>
<path fill="none" stroke="grey" stroke-width="2" d="M249.65,-431.34C256.79,-423.77 265.29,-414.75 273.21,-406.35"/>
<polygon fill="grey" stroke="grey" stroke-width="2" points="275.73,-408.78 280.04,-399.1 270.64,-403.98 275.73,-408.78"/>
</g>
<!-- 12 -->
<g id="node13" class="node">
<title>12</title>
<path fill="none" stroke="#5673d8" stroke-width="2" stroke-dasharray="5,2" d="M110,-540C110,-540 40,-540 40,-540 34,-540 28,-534 28,-528 28,-528 28,-516 28,-516 28,-510 34,-504 40,-504 40,-504 110,-504 110,-504 116,-504 122,-510 122,-516 122,-516 122,-528 122,-528 122,-534 116,-540 110,-540"/>
<text text-anchor="middle" x="75" y="-518.88" font-family="sans" font-size="10.00">filter_singletons</text>
</g>
<!-- 12&#45;&gt;11 -->
<g id="edge14" class="edge">
<title>12&#45;&gt;11</title>
<path fill="none" stroke="grey" stroke-width="2" d="M115.28,-503.15C135.17,-494.34 159.4,-483.61 180.7,-474.17"/>
<polygon fill="grey" stroke="grey" stroke-width="2" points="182.03,-477.41 189.75,-470.16 179.19,-471.01 182.03,-477.41"/>
</g>
<!-- 36 -->
<g id="node37" class="node">
<title>36</title>
<path fill="none" stroke="#68d856" stroke-width="2" stroke-dasharray="5,2" d="M410.12,-468C410.12,-468 319.88,-468 319.88,-468 313.88,-468 307.88,-462 307.88,-456 307.88,-456 307.88,-444 307.88,-444 307.88,-438 313.88,-432 319.88,-432 319.88,-432 410.12,-432 410.12,-432 416.12,-432 422.12,-438 422.12,-444 422.12,-444 422.12,-456 422.12,-456 422.12,-462 416.12,-468 410.12,-468"/>
<text text-anchor="middle" x="365" y="-453.25" font-family="sans" font-size="10.00">bcftools_submerge2</text>
<text text-anchor="middle" x="365" y="-440.5" font-family="sans" font-size="10.00">i: 1</text>
</g>
<!-- 12&#45;&gt;36 -->
<g id="edge57" class="edge">
<title>12&#45;&gt;36</title>
<path fill="none" stroke="grey" stroke-width="2" d="M122.89,-506.18C125.63,-505.42 128.34,-504.69 131,-504 201.03,-485.9 222.44,-485.52 294.55,-468.98"/>
<polygon fill="grey" stroke="grey" stroke-width="2" points="295.19,-472.42 304.14,-466.75 293.6,-465.61 295.19,-472.42"/>
</g>
<!-- 13 -->
<g id="node14" class="node">
<title>13</title>
<path fill="none" stroke="#d8b456" stroke-width="2" stroke-dasharray="5,2" d="M123.12,-828C123.12,-828 68.88,-828 68.88,-828 62.88,-828 56.88,-822 56.88,-816 56.88,-816 56.88,-804 56.88,-804 56.88,-798 62.88,-792 68.88,-792 68.88,-792 123.12,-792 123.12,-792 129.12,-792 135.12,-798 135.12,-804 135.12,-804 135.12,-816 135.12,-816 135.12,-822 129.12,-828 123.12,-828"/>
<text text-anchor="middle" x="96" y="-806.88" font-family="sans" font-size="10.00">bcftools_sort</text>
</g>
<!-- 13&#45;&gt;12 -->
<g id="edge19" class="edge">
<title>13&#45;&gt;12</title>
<path fill="none" stroke="grey" stroke-width="2" d="M94.69,-791.11C91.19,-743.56 81.65,-613.6 77.26,-553.83"/>
<polygon fill="grey" stroke="grey" stroke-width="2" points="80.76,-553.62 76.53,-543.9 73.78,-554.13 80.76,-553.62"/>
</g>
<!-- 18 -->
<g id="node19" class="node">
<title>18</title>
<path fill="none" stroke="#56d0d8" stroke-width="2" stroke-dasharray="5,2" d="M363.12,-756C363.12,-756 278.88,-756 278.88,-756 272.88,-756 266.88,-750 266.88,-744 266.88,-744 266.88,-732 266.88,-732 266.88,-726 272.88,-720 278.88,-720 278.88,-720 363.12,-720 363.12,-720 369.12,-720 375.12,-726 375.12,-732 375.12,-732 375.12,-744 375.12,-744 375.12,-750 369.12,-756 363.12,-756"/>
<text text-anchor="middle" x="321" y="-741.25" font-family="sans" font-size="10.00">bcftools_submerge</text>
<text text-anchor="middle" x="321" y="-728.5" font-family="sans" font-size="10.00">i: 0</text>
</g>
<!-- 13&#45;&gt;18 -->
<g id="edge27" class="edge">
<title>13&#45;&gt;18</title>
<path fill="none" stroke="grey" stroke-width="2" d="M136.06,-795.54C139.75,-794.33 143.44,-793.13 147,-792 182.06,-780.82 221.25,-768.84 253.56,-759.1"/>
<polygon fill="grey" stroke="grey" stroke-width="2" points="254.56,-762.45 263.13,-756.22 252.55,-755.75 254.56,-762.45"/>
</g>
<!-- 31 -->
<g id="node32" class="node">
<title>31</title>
<path fill="none" stroke="#56d0d8" stroke-width="2" stroke-dasharray="5,2" d="M237.12,-756C237.12,-756 152.88,-756 152.88,-756 146.88,-756 140.88,-750 140.88,-744 140.88,-744 140.88,-732 140.88,-732 140.88,-726 146.88,-720 152.88,-720 152.88,-720 237.12,-720 237.12,-720 243.12,-720 249.12,-726 249.12,-732 249.12,-732 249.12,-744 249.12,-744 249.12,-750 243.12,-756 237.12,-756"/>
<text text-anchor="middle" x="195" y="-741.25" font-family="sans" font-size="10.00">bcftools_submerge</text>
<text text-anchor="middle" x="195" y="-728.5" font-family="sans" font-size="10.00">i: 1</text>
</g>
<!-- 13&#45;&gt;31 -->
<g id="edge44" class="edge">
<title>13&#45;&gt;31</title>
<path fill="none" stroke="grey" stroke-width="2" d="M121.24,-791.15C132.76,-783.01 146.61,-773.22 159.18,-764.33"/>
<polygon fill="grey" stroke="grey" stroke-width="2" points="161.19,-767.19 167.34,-758.56 157.15,-761.48 161.19,-767.19"/>
</g>
<!-- 14 -->
<g id="node15" class="node">
<title>14</title>
<path fill="none" stroke="#d89556" stroke-width="2" stroke-dasharray="5,2" d="M123,-900C123,-900 65,-900 65,-900 59,-900 53,-894 53,-888 53,-888 53,-876 53,-876 53,-870 59,-864 65,-864 65,-864 123,-864 123,-864 129,-864 135,-870 135,-876 135,-876 135,-888 135,-888 135,-894 129,-900 123,-900"/>
<text text-anchor="middle" x="94" y="-878.88" font-family="sans" font-size="10.00">vcftools_filter</text>
</g>
<!-- 14&#45;&gt;13 -->
<g id="edge21" class="edge">
<title>14&#45;&gt;13</title>
<path fill="none" stroke="grey" stroke-width="2" d="M94.5,-863.34C94.69,-856.75 94.91,-849.08 95.12,-841.67"/>
<polygon fill="grey" stroke="grey" stroke-width="2" points="98.61,-842.02 95.4,-831.93 91.62,-841.82 98.61,-842.02"/>
</g>
<!-- 15&#45;&gt;14 -->
<g id="edge22" class="edge">
<title>15&#45;&gt;14</title>
<path fill="none" stroke="grey" stroke-width="2" d="M93.25,-935.34C93.35,-928.75 93.46,-921.08 93.56,-913.67"/>
<polygon fill="grey" stroke="grey" stroke-width="2" points="97.06,-913.98 93.7,-903.93 90.06,-913.88 97.06,-913.98"/>
</g>
<!-- 16 -->
<g id="node17" class="node">
<title>16</title>
<path fill="none" stroke="#88d856" stroke-width="2" stroke-dasharray="5,2" d="M330.62,-612C330.62,-612 267.38,-612 267.38,-612 261.38,-612 255.38,-606 255.38,-600 255.38,-600 255.38,-588 255.38,-588 255.38,-582 261.38,-576 267.38,-576 267.38,-576 330.62,-576 330.62,-576 336.62,-576 342.62,-582 342.62,-588 342.62,-588 342.62,-600 342.62,-600 342.62,-606 336.62,-612 330.62,-612"/>
<text text-anchor="middle" x="299" y="-590.88" font-family="sans" font-size="10.00">get_singletons</text>
</g>
<!-- 16&#45;&gt;12 -->
<g id="edge20" class="edge">
<title>16&#45;&gt;12</title>
<path fill="none" stroke="grey" stroke-width="2" d="M254.48,-579.09C220.32,-568.41 172.81,-553.56 135.25,-541.83"/>
<polygon fill="grey" stroke="grey" stroke-width="2" points="136.4,-538.52 125.82,-538.88 134.32,-545.2 136.4,-538.52"/>
</g>
<!-- 32 -->
<g id="node33" class="node">
<title>32</title>
<path fill="none" stroke="#5673d8" stroke-width="2" stroke-dasharray="5,2" d="M334,-540C334,-540 264,-540 264,-540 258,-540 252,-534 252,-528 252,-528 252,-516 252,-516 252,-510 258,-504 264,-504 264,-504 334,-504 334,-504 340,-504 346,-510 346,-516 346,-516 346,-528 346,-528 346,-534 340,-540 334,-540"/>
<text text-anchor="middle" x="299" y="-518.88" font-family="sans" font-size="10.00">filter_singletons</text>
</g>
<!-- 16&#45;&gt;32 -->
<g id="edge50" class="edge">
<title>16&#45;&gt;32</title>
<path fill="none" stroke="grey" stroke-width="2" d="M299,-575.34C299,-568.75 299,-561.08 299,-553.67"/>
<polygon fill="grey" stroke="grey" stroke-width="2" points="302.5,-553.93 299,-543.93 295.5,-553.93 302.5,-553.93"/>
</g>
<!-- 33 -->
<g id="node34" class="node">
<title>33</title>
<path fill="none" stroke="#5673d8" stroke-width="2" stroke-dasharray="5,2" d="M222,-540C222,-540 152,-540 152,-540 146,-540 140,-534 140,-528 140,-528 140,-516 140,-516 140,-510 146,-504 152,-504 152,-504 222,-504 222,-504 228,-504 234,-510 234,-516 234,-516 234,-528 234,-528 234,-534 228,-540 222,-540"/>
<text text-anchor="middle" x="187" y="-518.88" font-family="sans" font-size="10.00">filter_singletons</text>
</g>
<!-- 16&#45;&gt;33 -->
<g id="edge52" class="edge">
<title>16&#45;&gt;33</title>
<path fill="none" stroke="grey" stroke-width="2" d="M270.45,-575.15C257.02,-566.76 240.79,-556.62 226.24,-547.52"/>
<polygon fill="grey" stroke="grey" stroke-width="2" points="228.4,-544.75 218.07,-542.42 224.69,-550.68 228.4,-544.75"/>
</g>
<!-- 34 -->
<g id="node35" class="node">
<title>34</title>
<path fill="none" stroke="#5673d8" stroke-width="2" stroke-dasharray="5,2" d="M446,-540C446,-540 376,-540 376,-540 370,-540 364,-534 364,-528 364,-528 364,-516 364,-516 364,-510 370,-504 376,-504 376,-504 446,-504 446,-504 452,-504 458,-510 458,-516 458,-516 458,-528 458,-528 458,-534 452,-540 446,-540"/>
<text text-anchor="middle" x="411" y="-518.88" font-family="sans" font-size="10.00">filter_singletons</text>
</g>
<!-- 16&#45;&gt;34 -->
<g id="edge54" class="edge">
<title>16&#45;&gt;34</title>
<path fill="none" stroke="grey" stroke-width="2" d="M327.55,-575.15C340.98,-566.76 357.21,-556.62 371.76,-547.52"/>
<polygon fill="grey" stroke="grey" stroke-width="2" points="373.31,-550.68 379.93,-542.42 369.6,-544.75 373.31,-550.68"/>
</g>
<!-- 35 -->
<g id="node36" class="node">
<title>35</title>
<path fill="none" stroke="#5673d8" stroke-width="2" stroke-dasharray="5,2" d="M558,-540C558,-540 488,-540 488,-540 482,-540 476,-534 476,-528 476,-528 476,-516 476,-516 476,-510 482,-504 488,-504 488,-504 558,-504 558,-504 564,-504 570,-510 570,-516 570,-516 570,-528 570,-528 570,-534 564,-540 558,-540"/>
<text text-anchor="middle" x="523" y="-518.88" font-family="sans" font-size="10.00">filter_singletons</text>
</g>
<!-- 16&#45;&gt;35 -->
<g id="edge56" class="edge">
<title>16&#45;&gt;35</title>
<path fill="none" stroke="grey" stroke-width="2" d="M343.52,-579.09C377.68,-568.41 425.19,-553.56 462.75,-541.83"/>
<polygon fill="grey" stroke="grey" stroke-width="2" points="463.68,-545.2 472.18,-538.88 461.6,-538.52 463.68,-545.2"/>
</g>
<!-- 17 -->
<g id="node18" class="node">
<title>17</title>
<path fill="none" stroke="#5692d8" stroke-width="2" stroke-dasharray="5,2" d="M332.5,-684C332.5,-684 265.5,-684 265.5,-684 259.5,-684 253.5,-678 253.5,-672 253.5,-672 253.5,-660 253.5,-660 253.5,-654 259.5,-648 265.5,-648 265.5,-648 332.5,-648 332.5,-648 338.5,-648 344.5,-654 344.5,-660 344.5,-660 344.5,-672 344.5,-672 344.5,-678 338.5,-684 332.5,-684"/>
<text text-anchor="middle" x="299" y="-662.88" font-family="sans" font-size="10.00">bcftools_merge</text>
</g>
<!-- 17&#45;&gt;16 -->
<g id="edge24" class="edge">
<title>17&#45;&gt;16</title>
<path fill="none" stroke="grey" stroke-width="2" d="M299,-647.34C299,-640.75 299,-633.08 299,-625.67"/>
<polygon fill="grey" stroke="grey" stroke-width="2" points="302.5,-625.93 299,-615.93 295.5,-625.93 302.5,-625.93"/>
</g>
<!-- 18&#45;&gt;17 -->
<g id="edge25" class="edge">
<title>18&#45;&gt;17</title>
<path fill="none" stroke="grey" stroke-width="2" d="M315.45,-719.34C313.33,-712.59 310.85,-704.69 308.46,-697.11"/>
<polygon fill="grey" stroke="grey" stroke-width="2" points="311.87,-696.28 305.53,-687.79 305.19,-698.38 311.87,-696.28"/>
</g>
<!-- 19 -->
<g id="node20" class="node">
<title>19</title>
<path fill="none" stroke="#d8b456" stroke-width="2" stroke-dasharray="5,2" d="M326.12,-828C326.12,-828 271.88,-828 271.88,-828 265.88,-828 259.88,-822 259.88,-816 259.88,-816 259.88,-804 259.88,-804 259.88,-798 265.88,-792 271.88,-792 271.88,-792 326.12,-792 326.12,-792 332.12,-792 338.12,-798 338.12,-804 338.12,-804 338.12,-816 338.12,-816 338.12,-822 332.12,-828 326.12,-828"/>
<text text-anchor="middle" x="299" y="-806.88" font-family="sans" font-size="10.00">bcftools_sort</text>
</g>
<!-- 19&#45;&gt;18 -->
<g id="edge28" class="edge">
<title>19&#45;&gt;18</title>
<path fill="none" stroke="grey" stroke-width="2" d="M304.55,-791.34C306.67,-784.59 309.15,-776.69 311.54,-769.11"/>
<polygon fill="grey" stroke="grey" stroke-width="2" points="314.81,-770.38 314.47,-759.79 308.13,-768.28 314.81,-770.38"/>
</g>
<!-- 19&#45;&gt;31 -->
<g id="edge45" class="edge">
<title>19&#45;&gt;31</title>
<path fill="none" stroke="grey" stroke-width="2" d="M272.49,-791.15C260.26,-782.93 245.54,-773.02 232.23,-764.06"/>
<polygon fill="grey" stroke="grey" stroke-width="2" points="234.23,-761.18 223.98,-758.5 230.32,-766.99 234.23,-761.18"/>
</g>
<!-- 19&#45;&gt;32 -->
<g id="edge49" class="edge">
<title>19&#45;&gt;32</title>
<path fill="none" stroke="grey" stroke-width="2" d="M339.12,-794.39C356.16,-785.96 374.3,-773.49 384,-756 391.76,-742.01 385.75,-735.9 384,-720 376.85,-654.83 383.55,-633.47 352,-576 346.75,-566.43 339.25,-557.44 331.53,-549.68"/>
<polygon fill="grey" stroke="grey" stroke-width="2" points="334.05,-547.24 324.36,-542.94 329.25,-552.34 334.05,-547.24"/>
</g>
<!-- 20 -->
<g id="node21" class="node">
<title>20</title>
<path fill="none" stroke="#d89556" stroke-width="2" stroke-dasharray="5,2" d="M327,-900C327,-900 269,-900 269,-900 263,-900 257,-894 257,-888 257,-888 257,-876 257,-876 257,-870 263,-864 269,-864 269,-864 327,-864 327,-864 333,-864 339,-870 339,-876 339,-876 339,-888 339,-888 339,-894 333,-900 327,-900"/>
<text text-anchor="middle" x="298" y="-878.88" font-family="sans" font-size="10.00">vcftools_filter</text>
</g>
<!-- 20&#45;&gt;19 -->
<g id="edge32" class="edge">
<title>20&#45;&gt;19</title>
<path fill="none" stroke="grey" stroke-width="2" d="M298.25,-863.34C298.35,-856.75 298.46,-849.08 298.56,-841.67"/>
<polygon fill="grey" stroke="grey" stroke-width="2" points="302.06,-841.98 298.7,-831.93 295.06,-841.88 302.06,-841.98"/>
</g>
<!-- 21&#45;&gt;20 -->
<g id="edge33" class="edge">
<title>21&#45;&gt;20</title>
<path fill="none" stroke="grey" stroke-width="2" d="M298,-935.34C298,-928.75 298,-921.08 298,-913.67"/>
<polygon fill="grey" stroke="grey" stroke-width="2" points="301.5,-913.93 298,-903.93 294.5,-913.93 301.5,-913.93"/>
</g>
<!-- 22 -->
<g id="node23" class="node">
<title>22</title>
<path fill="none" stroke="#d8b456" stroke-width="2" stroke-dasharray="5,2" d="M222.12,-828C222.12,-828 167.88,-828 167.88,-828 161.88,-828 155.88,-822 155.88,-816 155.88,-816 155.88,-804 155.88,-804 155.88,-798 161.88,-792 167.88,-792 167.88,-792 222.12,-792 222.12,-792 228.12,-792 234.12,-798 234.12,-804 234.12,-804 234.12,-816 234.12,-816 234.12,-822 228.12,-828 222.12,-828"/>
<text text-anchor="middle" x="195" y="-806.88" font-family="sans" font-size="10.00">bcftools_sort</text>
</g>
<!-- 22&#45;&gt;18 -->
<g id="edge29" class="edge">
<title>22&#45;&gt;18</title>
<path fill="none" stroke="grey" stroke-width="2" d="M227.12,-791.15C242.52,-782.6 261.2,-772.22 277.82,-762.99"/>
<polygon fill="grey" stroke="grey" stroke-width="2" points="279.25,-766.2 286.29,-758.28 275.85,-760.08 279.25,-766.2"/>
</g>
<!-- 22&#45;&gt;31 -->
<g id="edge46" class="edge">
<title>22&#45;&gt;31</title>
<path fill="none" stroke="grey" stroke-width="2" d="M195,-791.34C195,-784.75 195,-777.08 195,-769.67"/>
<polygon fill="grey" stroke="grey" stroke-width="2" points="198.5,-769.93 195,-759.93 191.5,-769.93 198.5,-769.93"/>
</g>
<!-- 22&#45;&gt;33 -->
<g id="edge51" class="edge">
<title>22&#45;&gt;33</title>
<path fill="none" stroke="grey" stroke-width="2" d="M163.71,-791.09C151.43,-782.26 138.7,-770.38 132,-756 99.8,-686.82 142.07,-597.03 168.56,-551.77"/>
<polygon fill="grey" stroke="grey" stroke-width="2" points="171.48,-553.71 173.65,-543.34 165.49,-550.09 171.48,-553.71"/>
</g>
<!-- 23 -->
<g id="node24" class="node">
<title>23</title>
<path fill="none" stroke="#d89556" stroke-width="2" stroke-dasharray="5,2" d="M224,-900C224,-900 166,-900 166,-900 160,-900 154,-894 154,-888 154,-888 154,-876 154,-876 154,-870 160,-864 166,-864 166,-864 224,-864 224,-864 230,-864 236,-870 236,-876 236,-876 236,-888 236,-888 236,-894 230,-900 224,-900"/>
<text text-anchor="middle" x="195" y="-878.88" font-family="sans" font-size="10.00">vcftools_filter</text>
</g>
<!-- 23&#45;&gt;22 -->
<g id="edge35" class="edge">
<title>23&#45;&gt;22</title>
<path fill="none" stroke="grey" stroke-width="2" d="M195,-863.34C195,-856.75 195,-849.08 195,-841.67"/>
<polygon fill="grey" stroke="grey" stroke-width="2" points="198.5,-841.93 195,-831.93 191.5,-841.93 198.5,-841.93"/>
</g>
<!-- 24&#45;&gt;23 -->
<g id="edge36" class="edge">
<title>24&#45;&gt;23</title>
<path fill="none" stroke="grey" stroke-width="2" d="M195,-935.34C195,-928.75 195,-921.08 195,-913.67"/>
<polygon fill="grey" stroke="grey" stroke-width="2" points="198.5,-913.93 195,-903.93 191.5,-913.93 198.5,-913.93"/>
</g>
<!-- 25 -->
<g id="node26" class="node">
<title>25</title>
<path fill="none" stroke="#d8b456" stroke-width="2" stroke-dasharray="5,2" d="M423.12,-828C423.12,-828 368.88,-828 368.88,-828 362.88,-828 356.88,-822 356.88,-816 356.88,-816 356.88,-804 356.88,-804 356.88,-798 362.88,-792 368.88,-792 368.88,-792 423.12,-792 423.12,-792 429.12,-792 435.12,-798 435.12,-804 435.12,-804 435.12,-816 435.12,-816 435.12,-822 429.12,-828 423.12,-828"/>
<text text-anchor="middle" x="396" y="-806.88" font-family="sans" font-size="10.00">bcftools_sort</text>
</g>
<!-- 25&#45;&gt;18 -->
<g id="edge30" class="edge">
<title>25&#45;&gt;18</title>
<path fill="none" stroke="grey" stroke-width="2" d="M377.07,-791.34C368.7,-783.52 358.67,-774.16 349.43,-765.53"/>
<polygon fill="grey" stroke="grey" stroke-width="2" points="352.09,-763.23 342.39,-758.97 347.32,-768.35 352.09,-763.23"/>
</g>
<!-- 25&#45;&gt;31 -->
<g id="edge47" class="edge">
<title>25&#45;&gt;31</title>
<path fill="none" stroke="grey" stroke-width="2" d="M356.29,-795.17C328.39,-785.45 290.48,-772.25 258.42,-761.09"/>
<polygon fill="grey" stroke="grey" stroke-width="2" points="259.91,-757.9 249.32,-757.92 257.61,-764.51 259.91,-757.9"/>
</g>
<!-- 25&#45;&gt;34 -->
<g id="edge53" class="edge">
<title>25&#45;&gt;34</title>
<path fill="none" stroke="grey" stroke-width="2" d="M397.02,-791.33C397.61,-781.03 398.36,-767.78 399,-756 402.92,-683.56 407.23,-598.42 409.46,-553.82"/>
<polygon fill="grey" stroke="grey" stroke-width="2" points="412.96,-554.02 409.96,-543.86 405.97,-553.67 412.96,-554.02"/>
</g>
<!-- 26 -->
<g id="node27" class="node">
<title>26</title>
<path fill="none" stroke="#d89556" stroke-width="2" stroke-dasharray="5,2" d="M427,-900C427,-900 369,-900 369,-900 363,-900 357,-894 357,-888 357,-888 357,-876 357,-876 357,-870 363,-864 369,-864 369,-864 427,-864 427,-864 433,-864 439,-870 439,-876 439,-876 439,-888 439,-888 439,-894 433,-900 427,-900"/>
<text text-anchor="middle" x="398" y="-878.88" font-family="sans" font-size="10.00">vcftools_filter</text>
</g>
<!-- 26&#45;&gt;25 -->
<g id="edge38" class="edge">
<title>26&#45;&gt;25</title>
<path fill="none" stroke="grey" stroke-width="2" d="M397.5,-863.34C397.31,-856.75 397.09,-849.08 396.88,-841.67"/>
<polygon fill="grey" stroke="grey" stroke-width="2" points="400.38,-841.82 396.6,-831.93 393.39,-842.02 400.38,-841.82"/>
</g>
<!-- 27&#45;&gt;26 -->
<g id="edge39" class="edge">
<title>27&#45;&gt;26</title>
<path fill="none" stroke="grey" stroke-width="2" d="M398,-935.34C398,-928.75 398,-921.08 398,-913.67"/>
<polygon fill="grey" stroke="grey" stroke-width="2" points="401.5,-913.93 398,-903.93 394.5,-913.93 401.5,-913.93"/>
</g>
<!-- 28 -->
<g id="node29" class="node">
<title>28</title>
<path fill="none" stroke="#d8b456" stroke-width="2" stroke-dasharray="5,2" d="M522.12,-828C522.12,-828 467.88,-828 467.88,-828 461.88,-828 455.88,-822 455.88,-816 455.88,-816 455.88,-804 455.88,-804 455.88,-798 461.88,-792 467.88,-792 467.88,-792 522.12,-792 522.12,-792 528.12,-792 534.12,-798 534.12,-804 534.12,-804 534.12,-816 534.12,-816 534.12,-822 528.12,-828 522.12,-828"/>
<text text-anchor="middle" x="495" y="-806.88" font-family="sans" font-size="10.00">bcftools_sort</text>
</g>
<!-- 28&#45;&gt;18 -->
<g id="edge31" class="edge">
<title>28&#45;&gt;18</title>
<path fill="none" stroke="grey" stroke-width="2" d="M455.08,-792.94C432.15,-783.71 402.96,-771.97 377.68,-761.8"/>
<polygon fill="grey" stroke="grey" stroke-width="2" points="379.02,-758.57 368.44,-758.08 376.41,-765.06 379.02,-758.57"/>
</g>
<!-- 28&#45;&gt;31 -->
<g id="edge48" class="edge">
<title>28&#45;&gt;31</title>
<path fill="none" stroke="grey" stroke-width="2" d="M455.06,-795.14C451.34,-794.01 447.61,-792.95 444,-792 366.37,-771.64 342.27,-774.63 262.16,-756.85"/>
<polygon fill="grey" stroke="grey" stroke-width="2" points="263.39,-753.54 252.87,-754.74 261.84,-760.37 263.39,-753.54"/>
</g>
<!-- 28&#45;&gt;35 -->
<g id="edge55" class="edge">
<title>28&#45;&gt;35</title>
<path fill="none" stroke="grey" stroke-width="2" d="M496.75,-791.11C501.41,-743.56 514.13,-613.6 519.98,-553.83"/>
<polygon fill="grey" stroke="grey" stroke-width="2" points="523.46,-554.19 520.95,-543.9 516.5,-553.51 523.46,-554.19"/>
</g>
<!-- 29 -->
<g id="node30" class="node">
<title>29</title>
<path fill="none" stroke="#d89556" stroke-width="2" stroke-dasharray="5,2" d="M529,-900C529,-900 471,-900 471,-900 465,-900 459,-894 459,-888 459,-888 459,-876 459,-876 459,-870 465,-864 471,-864 471,-864 529,-864 529,-864 535,-864 541,-870 541,-876 541,-876 541,-888 541,-888 541,-894 535,-900 529,-900"/>
<text text-anchor="middle" x="500" y="-878.88" font-family="sans" font-size="10.00">vcftools_filter</text>
</g>
<!-- 29&#45;&gt;28 -->
<g id="edge41" class="edge">
<title>29&#45;&gt;28</title>
<path fill="none" stroke="grey" stroke-width="2" d="M498.74,-863.34C498.27,-856.75 497.72,-849.08 497.19,-841.67"/>
<polygon fill="grey" stroke="grey" stroke-width="2" points="500.7,-841.65 496.49,-831.92 493.72,-842.15 500.7,-841.65"/>
</g>
<!-- 30&#45;&gt;29 -->
<g id="edge42" class="edge">
<title>30&#45;&gt;29</title>
<path fill="none" stroke="grey" stroke-width="2" d="M501.5,-935.34C501.31,-928.75 501.09,-921.08 500.88,-913.67"/>
<polygon fill="grey" stroke="grey" stroke-width="2" points="504.38,-913.82 500.6,-903.93 497.39,-914.02 504.38,-913.82"/>
</g>
<!-- 31&#45;&gt;17 -->
<g id="edge26" class="edge">
<title>31&#45;&gt;17</title>
<path fill="none" stroke="grey" stroke-width="2" d="M221.51,-719.15C233.74,-710.93 248.46,-701.02 261.77,-692.06"/>
<polygon fill="grey" stroke="grey" stroke-width="2" points="263.68,-694.99 270.02,-686.5 259.77,-689.18 263.68,-694.99"/>
</g>
<!-- 32&#45;&gt;11 -->
<g id="edge15" class="edge">
<title>32&#45;&gt;11</title>
<path fill="none" stroke="grey" stroke-width="2" d="M282.35,-503.34C275.21,-495.77 266.71,-486.75 258.79,-478.35"/>
<polygon fill="grey" stroke="grey" stroke-width="2" points="261.36,-475.98 251.96,-471.1 256.27,-480.78 261.36,-475.98"/>
</g>
<!-- 32&#45;&gt;36 -->
<g id="edge58" class="edge">
<title>32&#45;&gt;36</title>
<path fill="none" stroke="grey" stroke-width="2" d="M315.65,-503.34C322.79,-495.77 331.29,-486.75 339.21,-478.35"/>
<polygon fill="grey" stroke="grey" stroke-width="2" points="341.73,-480.78 346.04,-471.1 336.64,-475.98 341.73,-480.78"/>
</g>
<!-- 33&#45;&gt;11 -->
<g id="edge16" class="edge">
<title>33&#45;&gt;11</title>
<path fill="none" stroke="grey" stroke-width="2" d="M198.61,-503.34C203.31,-496.18 208.87,-487.73 214.12,-479.73"/>
<polygon fill="grey" stroke="grey" stroke-width="2" points="217.01,-481.71 219.57,-471.43 211.16,-477.87 217.01,-481.71"/>
</g>
<!-- 33&#45;&gt;36 -->
<g id="edge59" class="edge">
<title>33&#45;&gt;36</title>
<path fill="none" stroke="grey" stroke-width="2" d="M232.38,-503.15C255.2,-494.18 283.11,-483.21 307.42,-473.64"/>
<polygon fill="grey" stroke="grey" stroke-width="2" points="308.55,-476.96 316.58,-470.04 305.99,-470.44 308.55,-476.96"/>
</g>
<!-- 34&#45;&gt;11 -->
<g id="edge17" class="edge">
<title>34&#45;&gt;11</title>
<path fill="none" stroke="grey" stroke-width="2" d="M365.62,-503.15C342.8,-494.18 314.89,-483.21 290.58,-473.64"/>
<polygon fill="grey" stroke="grey" stroke-width="2" points="292.01,-470.44 281.42,-470.04 289.45,-476.96 292.01,-470.44"/>
</g>
<!-- 34&#45;&gt;36 -->
<g id="edge60" class="edge">
<title>34&#45;&gt;36</title>
<path fill="none" stroke="grey" stroke-width="2" d="M399.39,-503.34C394.69,-496.18 389.13,-487.73 383.88,-479.73"/>
<polygon fill="grey" stroke="grey" stroke-width="2" points="386.84,-477.87 378.43,-471.43 380.99,-481.71 386.84,-477.87"/>
</g>
<!-- 35&#45;&gt;11 -->
<g id="edge18" class="edge">
<title>35&#45;&gt;11</title>
<path fill="none" stroke="grey" stroke-width="2" d="M475.11,-506.18C472.37,-505.42 469.66,-504.69 467,-504 396.97,-485.9 375.56,-485.52 303.45,-468.98"/>
<polygon fill="grey" stroke="grey" stroke-width="2" points="304.4,-465.61 293.86,-466.75 302.81,-472.42 304.4,-465.61"/>
</g>
<!-- 35&#45;&gt;36 -->
<g id="edge61" class="edge">
<title>35&#45;&gt;36</title>
<path fill="none" stroke="grey" stroke-width="2" d="M482.72,-503.15C462.83,-494.34 438.6,-483.61 417.3,-474.17"/>
<polygon fill="grey" stroke="grey" stroke-width="2" points="418.81,-471.01 408.25,-470.16 415.97,-477.41 418.81,-471.01"/>
</g>
<!-- 36&#45;&gt;10 -->
<g id="edge13" class="edge">
<title>36&#45;&gt;10</title>
<path fill="none" stroke="grey" stroke-width="2" d="M348.35,-431.34C341.21,-423.77 332.71,-414.75 324.79,-406.35"/>
<polygon fill="grey" stroke="grey" stroke-width="2" points="327.36,-403.98 317.96,-399.1 322.27,-408.78 327.36,-403.98"/>
</g>
<!-- 37 -->
<g id="node38" class="node">
<title>37</title>
<path fill="none" stroke="#d8d356" stroke-width="2" d="M371.38,-252C371.38,-252 300.62,-252 300.62,-252 294.62,-252 288.62,-246 288.62,-240 288.62,-240 288.62,-228 288.62,-228 288.62,-222 294.62,-216 300.62,-216 300.62,-216 371.38,-216 371.38,-216 377.38,-216 383.38,-222 383.38,-228 383.38,-228 383.38,-240 383.38,-240 383.38,-246 377.38,-252 371.38,-252"/>
<text text-anchor="middle" x="336" y="-230.88" font-family="sans" font-size="10.00">piawka_agg_het</text>
</g>
<!-- 37&#45;&gt;2 -->
<g id="edge5" class="edge">
<title>37&#45;&gt;2</title>
<path fill="none" stroke="grey" stroke-width="2" d="M317.07,-215.34C308.7,-207.52 298.67,-198.16 289.43,-189.53"/>
<polygon fill="grey" stroke="grey" stroke-width="2" points="292.09,-187.23 282.39,-182.97 287.32,-192.35 292.09,-187.23"/>
</g>
<!-- 38&#45;&gt;37 -->
<g id="edge62" class="edge">
<title>38&#45;&gt;37</title>
<path fill="none" stroke="grey" stroke-width="2" d="M336,-287.34C336,-280.75 336,-273.08 336,-265.67"/>
<polygon fill="grey" stroke="grey" stroke-width="2" points="339.5,-265.93 336,-255.93 332.5,-265.93 339.5,-265.93"/>
</g>
</g>
</svg>
