<?xml version="1.0" encoding="UTF-8" standalone="no"?>
<!DOCTYPE svg PUBLIC "-//W3C//DTD SVG 1.1//EN"
 "http://www.w3.org/Graphics/SVG/1.1/DTD/svg11.dtd">
<!-- Generated by graphviz version 11.0.0 (20240519.1550)
 -->
<!-- Title: snakemake_dag Pages: 1 -->
<svg width="214pt" height="1196pt"
 viewBox="0.00 0.00 214.00 1196.00" xmlns="http://www.w3.org/2000/svg" xmlns:xlink="http://www.w3.org/1999/xlink">
<g id="graph0" class="graph" transform="scale(1 1) rotate(0) translate(4 1192)">
<title>snakemake_dag</title>
<polygon fill="white" stroke="none" points="-4,4 -4,-1192 210,-1192 210,4 -4,4"/>
<!-- 0 -->
<g id="node1" class="node">
<title>0</title>
<path fill="none" stroke="#d8b456" stroke-width="2" d="M59,-36C59,-36 29,-36 29,-36 23,-36 17,-30 17,-24 17,-24 17,-12 17,-12 17,-6 23,0 29,0 29,0 59,0 59,0 65,0 71,-6 71,-12 71,-12 71,-24 71,-24 71,-30 65,-36 59,-36"/>
<text text-anchor="middle" x="44" y="-14.88" font-family="sans" font-size="10.00">all</text>
</g>
<!-- 1 -->
<g id="node2" class="node">
<title>1</title>
<path fill="none" stroke="#d85656" stroke-width="2" d="M76,-108C76,-108 12,-108 12,-108 6,-108 0,-102 0,-96 0,-96 0,-84 0,-84 0,-78 6,-72 12,-72 12,-72 76,-72 76,-72 82,-72 88,-78 88,-84 88,-84 88,-96 88,-96 88,-102 82,-108 76,-108"/>
<text text-anchor="middle" x="44" y="-86.88" font-family="sans" font-size="10.00">piawka_agg_pi</text>
</g>
<!-- 1&#45;&gt;0 -->
<g id="edge1" class="edge">
<title>1&#45;&gt;0</title>
<path fill="none" stroke="grey" stroke-width="2" d="M44,-71.34C44,-64.75 44,-57.08 44,-49.67"/>
<polygon fill="grey" stroke="grey" stroke-width="2" points="47.5,-49.93 44,-39.93 40.5,-49.93 47.5,-49.93"/>
</g>
<!-- 2 -->
<g id="node3" class="node">
<title>2</title>
<path fill="none" stroke="#9fd856" stroke-width="2" d="M64.38,-180C64.38,-180 23.62,-180 23.62,-180 17.62,-180 11.62,-174 11.62,-168 11.62,-168 11.62,-156 11.62,-156 11.62,-150 17.62,-144 23.62,-144 23.62,-144 64.38,-144 64.38,-144 70.38,-144 76.38,-150 76.38,-156 76.38,-156 76.38,-168 76.38,-168 76.38,-174 70.38,-180 64.38,-180"/>
<text text-anchor="middle" x="44" y="-158.88" font-family="sans" font-size="10.00">piawka_pi</text>
</g>
<!-- 2&#45;&gt;1 -->
<g id="edge2" class="edge">
<title>2&#45;&gt;1</title>
<path fill="none" stroke="grey" stroke-width="2" d="M44,-143.34C44,-136.75 44,-129.08 44,-121.67"/>
<polygon fill="grey" stroke="grey" stroke-width="2" points="47.5,-121.93 44,-111.93 40.5,-121.93 47.5,-121.93"/>
</g>
<!-- 3 -->
<g id="node4" class="node">
<title>3</title>
<path fill="none" stroke="#68d856" stroke-width="2" d="M118.38,-1044C118.38,-1044 77.62,-1044 77.62,-1044 71.62,-1044 65.62,-1038 65.62,-1032 65.62,-1032 65.62,-1020 65.62,-1020 65.62,-1014 71.62,-1008 77.62,-1008 77.62,-1008 118.38,-1008 118.38,-1008 124.38,-1008 130.38,-1014 130.38,-1020 130.38,-1020 130.38,-1032 130.38,-1032 130.38,-1038 124.38,-1044 118.38,-1044"/>
<text text-anchor="middle" x="98" y="-1022.88" font-family="sans" font-size="10.00">fasta2bed</text>
</g>
<!-- 3&#45;&gt;2 -->
<g id="edge5" class="edge">
<title>3&#45;&gt;2</title>
<path fill="none" stroke="grey" stroke-width="2" d="M76.2,-1007.31C48.43,-982.64 4,-935.03 4,-883 4,-883 4,-883 4,-305 4,-265.02 18.87,-221 30.48,-192.73"/>
<polygon fill="grey" stroke="grey" stroke-width="2" points="33.62,-194.28 34.33,-183.71 27.19,-191.53 33.62,-194.28"/>
</g>
<!-- 11 -->
<g id="node12" class="node">
<title>11</title>
<path fill="none" stroke="#56d0d8" stroke-width="2" d="M124.38,-972C124.38,-972 71.62,-972 71.62,-972 65.62,-972 59.62,-966 59.62,-960 59.62,-960 59.62,-948 59.62,-948 59.62,-942 65.62,-936 71.62,-936 71.62,-936 124.38,-936 124.38,-936 130.38,-936 136.38,-942 136.38,-948 136.38,-948 136.38,-960 136.38,-960 136.38,-966 130.38,-972 124.38,-972"/>
<text text-anchor="middle" x="98" y="-950.88" font-family="sans" font-size="10.00">bcftools_call</text>
</g>
<!-- 3&#45;&gt;11 -->
<g id="edge14" class="edge">
<title>3&#45;&gt;11</title>
<path fill="none" stroke="grey" stroke-width="2" d="M98,-1007.34C98,-1000.75 98,-993.08 98,-985.67"/>
<polygon fill="grey" stroke="grey" stroke-width="2" points="101.5,-985.93 98,-975.93 94.5,-985.93 101.5,-985.93"/>
</g>
<!-- 16 -->
<g id="node17" class="node">
<title>16</title>
<path fill="none" stroke="#5692d8" stroke-width="2" d="M142.75,-324C142.75,-324 95.25,-324 95.25,-324 89.25,-324 83.25,-318 83.25,-312 83.25,-312 83.25,-300 83.25,-300 83.25,-294 89.25,-288 95.25,-288 95.25,-288 142.75,-288 142.75,-288 148.75,-288 154.75,-294 154.75,-300 154.75,-300 154.75,-312 154.75,-312 154.75,-318 148.75,-324 142.75,-324"/>
<text text-anchor="middle" x="119" y="-302.88" font-family="sans" font-size="10.00">piawka_het</text>
</g>
<!-- 3&#45;&gt;16 -->
<g id="edge20" class="edge">
<title>3&#45;&gt;16</title>
<path fill="none" stroke="grey" stroke-width="2" d="M124.42,-1007.01C156.39,-982.86 206,-936.74 206,-883 206,-883 206,-883 206,-449 206,-403.42 173.01,-360.13 147.66,-333.59"/>
<polygon fill="grey" stroke="grey" stroke-width="2" points="150.4,-331.39 140.87,-326.75 145.43,-336.32 150.4,-331.39"/>
</g>
<!-- 4 -->
<g id="node5" class="node">
<title>4</title>
<path fill="none" stroke="#88d856" stroke-width="2" d="M113,-1116C113,-1116 83,-1116 83,-1116 77,-1116 71,-1110 71,-1104 71,-1104 71,-1092 71,-1092 71,-1086 77,-1080 83,-1080 83,-1080 113,-1080 113,-1080 119,-1080 125,-1086 125,-1092 125,-1092 125,-1104 125,-1104 125,-1110 119,-1116 113,-1116"/>
<text text-anchor="middle" x="98" y="-1094.88" font-family="sans" font-size="10.00">gstacks</text>
</g>
<!-- 4&#45;&gt;3 -->
<g id="edge6" class="edge">
<title>4&#45;&gt;3</title>
<path fill="none" stroke="grey" stroke-width="2" d="M98,-1079.34C98,-1072.75 98,-1065.08 98,-1057.67"/>
<polygon fill="grey" stroke="grey" stroke-width="2" points="101.5,-1057.93 98,-1047.93 94.5,-1057.93 101.5,-1057.93"/>
</g>
<!-- 5 -->
<g id="node6" class="node">
<title>5</title>
<path fill="none" stroke="#d8d356" stroke-width="2" d="M132.62,-1188C132.62,-1188 63.38,-1188 63.38,-1188 57.38,-1188 51.38,-1182 51.38,-1176 51.38,-1176 51.38,-1164 51.38,-1164 51.38,-1158 57.38,-1152 63.38,-1152 63.38,-1152 132.62,-1152 132.62,-1152 138.62,-1152 144.62,-1158 144.62,-1164 144.62,-1164 144.62,-1176 144.62,-1176 144.62,-1182 138.62,-1188 132.62,-1188"/>
<text text-anchor="middle" x="98" y="-1166.88" font-family="sans" font-size="10.00">samtools_index</text>
</g>
<!-- 5&#45;&gt;4 -->
<g id="edge7" class="edge">
<title>5&#45;&gt;4</title>
<path fill="none" stroke="grey" stroke-width="2" d="M98,-1151.34C98,-1144.75 98,-1137.08 98,-1129.67"/>
<polygon fill="grey" stroke="grey" stroke-width="2" points="101.5,-1129.93 98,-1119.93 94.5,-1129.93 101.5,-1129.93"/>
</g>
<!-- 6 -->
<g id="node7" class="node">
<title>6</title>
<path fill="none" stroke="#5673d8" stroke-width="2" d="M140.5,-396C140.5,-396 67.5,-396 67.5,-396 61.5,-396 55.5,-390 55.5,-384 55.5,-384 55.5,-372 55.5,-372 55.5,-366 61.5,-360 67.5,-360 67.5,-360 140.5,-360 140.5,-360 146.5,-360 152.5,-366 152.5,-372 152.5,-372 152.5,-384 152.5,-384 152.5,-390 146.5,-396 140.5,-396"/>
<text text-anchor="middle" x="104" y="-374.88" font-family="sans" font-size="10.00">bcftools_merge2</text>
</g>
<!-- 6&#45;&gt;2 -->
<g id="edge4" class="edge">
<title>6&#45;&gt;2</title>
<path fill="none" stroke="grey" stroke-width="2" d="M91.88,-359.08C85.67,-349.14 78.49,-336.32 74,-324 58.06,-280.29 50.24,-226.68 46.67,-193.69"/>
<polygon fill="grey" stroke="grey" stroke-width="2" points="50.17,-193.51 45.7,-183.91 43.21,-194.21 50.17,-193.51"/>
</g>
<!-- 6&#45;&gt;16 -->
<g id="edge19" class="edge">
<title>6&#45;&gt;16</title>
<path fill="none" stroke="grey" stroke-width="2" d="M107.79,-359.34C109.21,-352.67 110.88,-344.89 112.49,-337.39"/>
<polygon fill="grey" stroke="grey" stroke-width="2" points="115.86,-338.37 114.53,-327.86 109.01,-336.91 115.86,-338.37"/>
</g>
<!-- 7 -->
<g id="node8" class="node">
<title>7</title>
<path fill="none" stroke="#56b1d8" stroke-width="2" d="M149.12,-468C149.12,-468 58.88,-468 58.88,-468 52.88,-468 46.88,-462 46.88,-456 46.88,-456 46.88,-444 46.88,-444 46.88,-438 52.88,-432 58.88,-432 58.88,-432 149.12,-432 149.12,-432 155.12,-432 161.12,-438 161.12,-444 161.12,-444 161.12,-456 161.12,-456 161.12,-462 155.12,-468 149.12,-468"/>
<text text-anchor="middle" x="104" y="-446.88" font-family="sans" font-size="10.00">bcftools_submerge2</text>
</g>
<!-- 7&#45;&gt;6 -->
<g id="edge8" class="edge">
<title>7&#45;&gt;6</title>
<path fill="none" stroke="grey" stroke-width="2" d="M104,-431.34C104,-424.75 104,-417.08 104,-409.67"/>
<polygon fill="grey" stroke="grey" stroke-width="2" points="107.5,-409.93 104,-399.93 100.5,-409.93 107.5,-409.93"/>
</g>
<!-- 8 -->
<g id="node9" class="node">
<title>8</title>
<path fill="none" stroke="#bed856" stroke-width="2" d="M139,-540C139,-540 69,-540 69,-540 63,-540 57,-534 57,-528 57,-528 57,-516 57,-516 57,-510 63,-504 69,-504 69,-504 139,-504 139,-504 145,-504 151,-510 151,-516 151,-516 151,-528 151,-528 151,-534 145,-540 139,-540"/>
<text text-anchor="middle" x="104" y="-518.88" font-family="sans" font-size="10.00">filter_singletons</text>
</g>
<!-- 8&#45;&gt;7 -->
<g id="edge9" class="edge">
<title>8&#45;&gt;7</title>
<path fill="none" stroke="grey" stroke-width="2" d="M104,-503.34C104,-496.75 104,-489.08 104,-481.67"/>
<polygon fill="grey" stroke="grey" stroke-width="2" points="107.5,-481.93 104,-471.93 100.5,-481.93 107.5,-481.93"/>
</g>
<!-- 9 -->
<g id="node10" class="node">
<title>9</title>
<path fill="none" stroke="#56d8a2" stroke-width="2" d="M125.12,-828C125.12,-828 70.88,-828 70.88,-828 64.88,-828 58.88,-822 58.88,-816 58.88,-816 58.88,-804 58.88,-804 58.88,-798 64.88,-792 70.88,-792 70.88,-792 125.12,-792 125.12,-792 131.12,-792 137.12,-798 137.12,-804 137.12,-804 137.12,-816 137.12,-816 137.12,-822 131.12,-828 125.12,-828"/>
<text text-anchor="middle" x="98" y="-806.88" font-family="sans" font-size="10.00">bcftools_sort</text>
</g>
<!-- 9&#45;&gt;8 -->
<g id="edge11" class="edge">
<title>9&#45;&gt;8</title>
<path fill="none" stroke="grey" stroke-width="2" d="M81.58,-791.37C73.7,-781.71 65.11,-769.06 61,-756 50.03,-721.12 34.18,-677.17 68,-576 70.89,-567.35 75.62,-558.81 80.72,-551.19"/>
<polygon fill="grey" stroke="grey" stroke-width="2" points="83.45,-553.38 86.49,-543.23 77.79,-549.27 83.45,-553.38"/>
</g>
<!-- 14 -->
<g id="node15" class="node">
<title>14</title>
<path fill="none" stroke="#56d863" stroke-width="2" d="M166.12,-756C166.12,-756 81.88,-756 81.88,-756 75.88,-756 69.88,-750 69.88,-744 69.88,-744 69.88,-732 69.88,-732 69.88,-726 75.88,-720 81.88,-720 81.88,-720 166.12,-720 166.12,-720 172.12,-720 178.12,-726 178.12,-732 178.12,-732 178.12,-744 178.12,-744 178.12,-750 172.12,-756 166.12,-756"/>
<text text-anchor="middle" x="124" y="-734.88" font-family="sans" font-size="10.00">bcftools_submerge</text>
</g>
<!-- 9&#45;&gt;14 -->
<g id="edge17" class="edge">
<title>9&#45;&gt;14</title>
<path fill="none" stroke="grey" stroke-width="2" d="M104.56,-791.34C107.07,-784.59 110,-776.69 112.82,-769.11"/>
<polygon fill="grey" stroke="grey" stroke-width="2" points="116.1,-770.33 116.3,-759.74 109.53,-767.9 116.1,-770.33"/>
</g>
<!-- 10 -->
<g id="node11" class="node">
<title>10</title>
<path fill="none" stroke="#56d8c1" stroke-width="2" d="M127,-900C127,-900 69,-900 69,-900 63,-900 57,-894 57,-888 57,-888 57,-876 57,-876 57,-870 63,-864 69,-864 69,-864 127,-864 127,-864 133,-864 139,-870 139,-876 139,-876 139,-888 139,-888 139,-894 133,-900 127,-900"/>
<text text-anchor="middle" x="98" y="-878.88" font-family="sans" font-size="10.00">vcftools_filter</text>
</g>
<!-- 10&#45;&gt;9 -->
<g id="edge12" class="edge">
<title>10&#45;&gt;9</title>
<path fill="none" stroke="grey" stroke-width="2" d="M98,-863.34C98,-856.75 98,-849.08 98,-841.67"/>
<polygon fill="grey" stroke="grey" stroke-width="2" points="101.5,-841.93 98,-831.93 94.5,-841.93 101.5,-841.93"/>
</g>
<!-- 11&#45;&gt;10 -->
<g id="edge13" class="edge">
<title>11&#45;&gt;10</title>
<path fill="none" stroke="grey" stroke-width="2" d="M98,-935.34C98,-928.75 98,-921.08 98,-913.67"/>
<polygon fill="grey" stroke="grey" stroke-width="2" points="101.5,-913.93 98,-903.93 94.5,-913.93 101.5,-913.93"/>
</g>
<!-- 12 -->
<g id="node13" class="node">
<title>12</title>
<path fill="none" stroke="#d89556" stroke-width="2" d="M152.62,-612C152.62,-612 89.38,-612 89.38,-612 83.38,-612 77.38,-606 77.38,-600 77.38,-600 77.38,-588 77.38,-588 77.38,-582 83.38,-576 89.38,-576 89.38,-576 152.62,-576 152.62,-576 158.62,-576 164.62,-582 164.62,-588 164.62,-588 164.62,-600 164.62,-600 164.62,-606 158.62,-612 152.62,-612"/>
<text text-anchor="middle" x="121" y="-590.88" font-family="sans" font-size="10.00">get_singletons</text>
</g>
<!-- 12&#45;&gt;8 -->
<g id="edge10" class="edge">
<title>12&#45;&gt;8</title>
<path fill="none" stroke="grey" stroke-width="2" d="M116.71,-575.34C115.09,-568.67 113.2,-560.89 111.38,-553.39"/>
<polygon fill="grey" stroke="grey" stroke-width="2" points="114.82,-552.73 109.06,-543.84 108.02,-554.39 114.82,-552.73"/>
</g>
<!-- 13 -->
<g id="node14" class="node">
<title>13</title>
<path fill="none" stroke="#56d882" stroke-width="2" d="M155.5,-684C155.5,-684 88.5,-684 88.5,-684 82.5,-684 76.5,-678 76.5,-672 76.5,-672 76.5,-660 76.5,-660 76.5,-654 82.5,-648 88.5,-648 88.5,-648 155.5,-648 155.5,-648 161.5,-648 167.5,-654 167.5,-660 167.5,-660 167.5,-672 167.5,-672 167.5,-678 161.5,-684 155.5,-684"/>
<text text-anchor="middle" x="122" y="-662.88" font-family="sans" font-size="10.00">bcftools_merge</text>
</g>
<!-- 13&#45;&gt;12 -->
<g id="edge15" class="edge">
<title>13&#45;&gt;12</title>
<path fill="none" stroke="grey" stroke-width="2" d="M121.75,-647.34C121.65,-640.75 121.54,-633.08 121.44,-625.67"/>
<polygon fill="grey" stroke="grey" stroke-width="2" points="124.94,-625.88 121.3,-615.93 117.94,-625.98 124.94,-625.88"/>
</g>
<!-- 14&#45;&gt;13 -->
<g id="edge16" class="edge">
<title>14&#45;&gt;13</title>
<path fill="none" stroke="grey" stroke-width="2" d="M123.5,-719.34C123.31,-712.75 123.09,-705.08 122.88,-697.67"/>
<polygon fill="grey" stroke="grey" stroke-width="2" points="126.38,-697.82 122.6,-687.93 119.39,-698.02 126.38,-697.82"/>
</g>
<!-- 15 -->
<g id="node16" class="node">
<title>15</title>
<path fill="none" stroke="#d87556" stroke-width="2" d="M154.38,-252C154.38,-252 83.62,-252 83.62,-252 77.62,-252 71.62,-246 71.62,-240 71.62,-240 71.62,-228 71.62,-228 71.62,-222 77.62,-216 83.62,-216 83.62,-216 154.38,-216 154.38,-216 160.38,-216 166.38,-222 166.38,-228 166.38,-228 166.38,-240 166.38,-240 166.38,-246 160.38,-252 154.38,-252"/>
<text text-anchor="middle" x="119" y="-230.88" font-family="sans" font-size="10.00">piawka_agg_het</text>
</g>
<!-- 15&#45;&gt;2 -->
<g id="edge3" class="edge">
<title>15&#45;&gt;2</title>
<path fill="none" stroke="grey" stroke-width="2" d="M100.07,-215.34C91.7,-207.52 81.67,-198.16 72.43,-189.53"/>
<polygon fill="grey" stroke="grey" stroke-width="2" points="75.09,-187.23 65.39,-182.97 70.32,-192.35 75.09,-187.23"/>
</g>
<!-- 16&#45;&gt;15 -->
<g id="edge18" class="edge">
<title>16&#45;&gt;15</title>
<path fill="none" stroke="grey" stroke-width="2" d="M119,-287.34C119,-280.75 119,-273.08 119,-265.67"/>
<polygon fill="grey" stroke="grey" stroke-width="2" points="122.5,-265.93 119,-255.93 115.5,-265.93 122.5,-265.93"/>
</g>
</g>
</svg>
