<?xml version="1.0" encoding="UTF-8" standalone="no"?>
<!DOCTYPE svg PUBLIC "-//W3C//DTD SVG 1.1//EN"
 "http://www.w3.org/Graphics/SVG/1.1/DTD/svg11.dtd">
<!-- Generated by graphviz version 11.0.0 (20240519.1550)
 -->
<!-- Title: snakemake_dag Pages: 1 -->
<svg width="202pt" height="1052pt"
 viewBox="0.00 0.00 202.38 1052.00" xmlns="http://www.w3.org/2000/svg" xmlns:xlink="http://www.w3.org/1999/xlink">
<g id="graph0" class="graph" transform="scale(1 1) rotate(0) translate(4 1048)">
<title>snakemake_dag</title>
<polygon fill="white" stroke="none" points="-4,4 -4,-1048 198.38,-1048 198.38,4 -4,4"/>
<!-- 0 -->
<g id="node1" class="node">
<title>0</title>
<path fill="none" stroke="#d85656" stroke-width="2" d="M87,-36C87,-36 57,-36 57,-36 51,-36 45,-30 45,-24 45,-24 45,-12 45,-12 45,-6 51,0 57,0 57,0 87,0 87,0 93,0 99,-6 99,-12 99,-12 99,-24 99,-24 99,-30 93,-36 87,-36"/>
<text text-anchor="middle" x="72" y="-14.88" font-family="sans" font-size="10.00">all</text>
</g>
<!-- 1 -->
<g id="node2" class="node">
<title>1</title>
<path fill="none" stroke="#59d856" stroke-width="2" d="M104,-108C104,-108 40,-108 40,-108 34,-108 28,-102 28,-96 28,-96 28,-84 28,-84 28,-78 34,-72 40,-72 40,-72 104,-72 104,-72 110,-72 116,-78 116,-84 116,-84 116,-96 116,-96 116,-102 110,-108 104,-108"/>
<text text-anchor="middle" x="72" y="-86.88" font-family="sans" font-size="10.00">piawka_agg_pi</text>
</g>
<!-- 1&#45;&gt;0 -->
<g id="edge1" class="edge">
<title>1&#45;&gt;0</title>
<path fill="none" stroke="grey" stroke-width="2" d="M72,-71.34C72,-64.75 72,-57.08 72,-49.67"/>
<polygon fill="grey" stroke="grey" stroke-width="2" points="75.5,-49.93 72,-39.93 68.5,-49.93 75.5,-49.93"/>
</g>
<!-- 2 -->
<g id="node3" class="node">
<title>2</title>
<path fill="none" stroke="#569ad8" stroke-width="2" d="M92.38,-180C92.38,-180 51.62,-180 51.62,-180 45.62,-180 39.62,-174 39.62,-168 39.62,-168 39.62,-156 39.62,-156 39.62,-150 45.62,-144 51.62,-144 51.62,-144 92.38,-144 92.38,-144 98.38,-144 104.38,-150 104.38,-156 104.38,-156 104.38,-168 104.38,-168 104.38,-174 98.38,-180 92.38,-180"/>
<text text-anchor="middle" x="72" y="-158.88" font-family="sans" font-size="10.00">piawka_pi</text>
</g>
<!-- 2&#45;&gt;1 -->
<g id="edge2" class="edge">
<title>2&#45;&gt;1</title>
<path fill="none" stroke="grey" stroke-width="2" d="M72,-143.34C72,-136.75 72,-129.08 72,-121.67"/>
<polygon fill="grey" stroke="grey" stroke-width="2" points="75.5,-121.93 72,-111.93 68.5,-121.93 75.5,-121.93"/>
</g>
<!-- 3 -->
<g id="node4" class="node">
<title>3</title>
<path fill="none" stroke="#78d856" stroke-width="2" d="M111.38,-900C111.38,-900 70.62,-900 70.62,-900 64.62,-900 58.62,-894 58.62,-888 58.62,-888 58.62,-876 58.62,-876 58.62,-870 64.62,-864 70.62,-864 70.62,-864 111.38,-864 111.38,-864 117.38,-864 123.38,-870 123.38,-876 123.38,-876 123.38,-888 123.38,-888 123.38,-894 117.38,-900 111.38,-900"/>
<text text-anchor="middle" x="91" y="-878.88" font-family="sans" font-size="10.00">fasta2bed</text>
</g>
<!-- 3&#45;&gt;2 -->
<g id="edge5" class="edge">
<title>3&#45;&gt;2</title>
<path fill="none" stroke="grey" stroke-width="2" d="M69.89,-863.16C43.01,-838.33 0,-790.53 0,-739 0,-739 0,-739 0,-305 0,-261.57 27.13,-217.95 48.08,-190.74"/>
<polygon fill="grey" stroke="grey" stroke-width="2" points="50.62,-193.17 54.13,-183.18 45.15,-188.8 50.62,-193.17"/>
</g>
<!-- 11 -->
<g id="node12" class="node">
<title>11</title>
<path fill="none" stroke="#d89556" stroke-width="2" d="M117.38,-828C117.38,-828 64.62,-828 64.62,-828 58.62,-828 52.62,-822 52.62,-816 52.62,-816 52.62,-804 52.62,-804 52.62,-798 58.62,-792 64.62,-792 64.62,-792 117.38,-792 117.38,-792 123.38,-792 129.38,-798 129.38,-804 129.38,-804 129.38,-816 129.38,-816 129.38,-822 123.38,-828 117.38,-828"/>
<text text-anchor="middle" x="91" y="-806.88" font-family="sans" font-size="10.00">bcftools_call</text>
</g>
<!-- 3&#45;&gt;11 -->
<g id="edge14" class="edge">
<title>3&#45;&gt;11</title>
<path fill="none" stroke="grey" stroke-width="2" d="M91,-863.34C91,-856.75 91,-849.08 91,-841.67"/>
<polygon fill="grey" stroke="grey" stroke-width="2" points="94.5,-841.93 91,-831.93 87.5,-841.93 94.5,-841.93"/>
</g>
<!-- 14 -->
<g id="node15" class="node">
<title>14</title>
<path fill="none" stroke="#56d8b9" stroke-width="2" d="M170.75,-324C170.75,-324 123.25,-324 123.25,-324 117.25,-324 111.25,-318 111.25,-312 111.25,-312 111.25,-300 111.25,-300 111.25,-294 117.25,-288 123.25,-288 123.25,-288 170.75,-288 170.75,-288 176.75,-288 182.75,-294 182.75,-300 182.75,-300 182.75,-312 182.75,-312 182.75,-318 176.75,-324 170.75,-324"/>
<text text-anchor="middle" x="147" y="-302.88" font-family="sans" font-size="10.00">piawka_het</text>
</g>
<!-- 3&#45;&gt;14 -->
<g id="edge18" class="edge">
<title>3&#45;&gt;14</title>
<path fill="none" stroke="grey" stroke-width="2" d="M112.11,-863.16C138.99,-838.33 182,-790.53 182,-739 182,-739 182,-739 182,-449 182,-409.15 168.84,-364.78 158.66,-336.42"/>
<polygon fill="grey" stroke="grey" stroke-width="2" points="162.08,-335.57 155.31,-327.43 155.52,-338.02 162.08,-335.57"/>
</g>
<!-- 4 -->
<g id="node5" class="node">
<title>4</title>
<path fill="none" stroke="#d87556" stroke-width="2" d="M106,-972C106,-972 76,-972 76,-972 70,-972 64,-966 64,-960 64,-960 64,-948 64,-948 64,-942 70,-936 76,-936 76,-936 106,-936 106,-936 112,-936 118,-942 118,-948 118,-948 118,-960 118,-960 118,-966 112,-972 106,-972"/>
<text text-anchor="middle" x="91" y="-950.88" font-family="sans" font-size="10.00">gstacks</text>
</g>
<!-- 4&#45;&gt;3 -->
<g id="edge6" class="edge">
<title>4&#45;&gt;3</title>
<path fill="none" stroke="grey" stroke-width="2" d="M91,-935.34C91,-928.75 91,-921.08 91,-913.67"/>
<polygon fill="grey" stroke="grey" stroke-width="2" points="94.5,-913.93 91,-903.93 87.5,-913.93 94.5,-913.93"/>
</g>
<!-- 5 -->
<g id="node6" class="node">
<title>5</title>
<path fill="none" stroke="#56b9d8" stroke-width="2" d="M125.62,-1044C125.62,-1044 56.38,-1044 56.38,-1044 50.38,-1044 44.38,-1038 44.38,-1032 44.38,-1032 44.38,-1020 44.38,-1020 44.38,-1014 50.38,-1008 56.38,-1008 56.38,-1008 125.62,-1008 125.62,-1008 131.62,-1008 137.62,-1014 137.62,-1020 137.62,-1020 137.62,-1032 137.62,-1032 137.62,-1038 131.62,-1044 125.62,-1044"/>
<text text-anchor="middle" x="91" y="-1022.88" font-family="sans" font-size="10.00">samtools_index</text>
</g>
<!-- 5&#45;&gt;4 -->
<g id="edge7" class="edge">
<title>5&#45;&gt;4</title>
<path fill="none" stroke="grey" stroke-width="2" d="M91,-1007.34C91,-1000.75 91,-993.08 91,-985.67"/>
<polygon fill="grey" stroke="grey" stroke-width="2" points="94.5,-985.93 91,-975.93 87.5,-985.93 94.5,-985.93"/>
</g>
<!-- 6 -->
<g id="node7" class="node">
<title>6</title>
<path fill="none" stroke="#56d87b" stroke-width="2" d="M126,-396C126,-396 56,-396 56,-396 50,-396 44,-390 44,-384 44,-384 44,-372 44,-372 44,-366 50,-360 56,-360 56,-360 126,-360 126,-360 132,-360 138,-366 138,-372 138,-372 138,-384 138,-384 138,-390 132,-396 126,-396"/>
<text text-anchor="middle" x="91" y="-374.88" font-family="sans" font-size="10.00">filter_singletons</text>
</g>
<!-- 6&#45;&gt;2 -->
<g id="edge3" class="edge">
<title>6&#45;&gt;2</title>
<path fill="none" stroke="grey" stroke-width="2" d="M89.41,-359.12C86.17,-322.62 78.76,-239.13 74.73,-193.74"/>
<polygon fill="grey" stroke="grey" stroke-width="2" points="78.23,-193.64 73.86,-183.99 71.26,-194.26 78.23,-193.64"/>
</g>
<!-- 6&#45;&gt;14 -->
<g id="edge17" class="edge">
<title>6&#45;&gt;14</title>
<path fill="none" stroke="grey" stroke-width="2" d="M105.13,-359.34C111.05,-351.93 118.09,-343.14 124.68,-334.9"/>
<polygon fill="grey" stroke="grey" stroke-width="2" points="127.27,-337.26 130.79,-327.27 121.81,-332.89 127.27,-337.26"/>
</g>
<!-- 7 -->
<g id="node8" class="node">
<title>7</title>
<path fill="none" stroke="#d8b456" stroke-width="2" d="M124.5,-540C124.5,-540 57.5,-540 57.5,-540 51.5,-540 45.5,-534 45.5,-528 45.5,-528 45.5,-516 45.5,-516 45.5,-510 51.5,-504 57.5,-504 57.5,-504 124.5,-504 124.5,-504 130.5,-504 136.5,-510 136.5,-516 136.5,-516 136.5,-528 136.5,-528 136.5,-534 130.5,-540 124.5,-540"/>
<text text-anchor="middle" x="91" y="-518.88" font-family="sans" font-size="10.00">bcftools_merge</text>
</g>
<!-- 7&#45;&gt;6 -->
<g id="edge9" class="edge">
<title>7&#45;&gt;6</title>
<path fill="none" stroke="grey" stroke-width="2" d="M75.89,-503.16C68.65,-493.44 60.75,-480.8 57,-468 52.5,-452.65 52.5,-447.35 57,-432 59.49,-423.5 63.81,-415.07 68.55,-407.52"/>
<polygon fill="grey" stroke="grey" stroke-width="2" points="71.4,-409.56 74.18,-399.34 65.63,-405.6 71.4,-409.56"/>
</g>
<!-- 12 -->
<g id="node13" class="node">
<title>12</title>
<path fill="none" stroke="#56d89a" stroke-width="2" d="M141.62,-468C141.62,-468 78.38,-468 78.38,-468 72.38,-468 66.38,-462 66.38,-456 66.38,-456 66.38,-444 66.38,-444 66.38,-438 72.38,-432 78.38,-432 78.38,-432 141.62,-432 141.62,-432 147.62,-432 153.62,-438 153.62,-444 153.62,-444 153.62,-456 153.62,-456 153.62,-462 147.62,-468 141.62,-468"/>
<text text-anchor="middle" x="110" y="-446.88" font-family="sans" font-size="10.00">get_singletons</text>
</g>
<!-- 7&#45;&gt;12 -->
<g id="edge15" class="edge">
<title>7&#45;&gt;12</title>
<path fill="none" stroke="grey" stroke-width="2" d="M95.79,-503.34C97.6,-496.67 99.72,-488.89 101.75,-481.39"/>
<polygon fill="grey" stroke="grey" stroke-width="2" points="105.11,-482.39 104.35,-471.82 98.35,-480.56 105.11,-482.39"/>
</g>
<!-- 8 -->
<g id="node9" class="node">
<title>8</title>
<path fill="none" stroke="#97d856" stroke-width="2" d="M133.12,-612C133.12,-612 48.88,-612 48.88,-612 42.88,-612 36.88,-606 36.88,-600 36.88,-600 36.88,-588 36.88,-588 36.88,-582 42.88,-576 48.88,-576 48.88,-576 133.12,-576 133.12,-576 139.12,-576 145.12,-582 145.12,-588 145.12,-588 145.12,-600 145.12,-600 145.12,-606 139.12,-612 133.12,-612"/>
<text text-anchor="middle" x="91" y="-590.88" font-family="sans" font-size="10.00">bcftools_submerge</text>
</g>
<!-- 8&#45;&gt;7 -->
<g id="edge10" class="edge">
<title>8&#45;&gt;7</title>
<path fill="none" stroke="grey" stroke-width="2" d="M91,-575.34C91,-568.75 91,-561.08 91,-553.67"/>
<polygon fill="grey" stroke="grey" stroke-width="2" points="94.5,-553.93 91,-543.93 87.5,-553.93 94.5,-553.93"/>
</g>
<!-- 9 -->
<g id="node10" class="node">
<title>9</title>
<path fill="none" stroke="#d6d856" stroke-width="2" d="M118.12,-684C118.12,-684 63.88,-684 63.88,-684 57.88,-684 51.88,-678 51.88,-672 51.88,-672 51.88,-660 51.88,-660 51.88,-654 57.88,-648 63.88,-648 63.88,-648 118.12,-648 118.12,-648 124.12,-648 130.12,-654 130.12,-660 130.12,-660 130.12,-672 130.12,-672 130.12,-678 124.12,-684 118.12,-684"/>
<text text-anchor="middle" x="91" y="-662.88" font-family="sans" font-size="10.00">bcftools_sort</text>
</g>
<!-- 9&#45;&gt;8 -->
<g id="edge11" class="edge">
<title>9&#45;&gt;8</title>
<path fill="none" stroke="grey" stroke-width="2" d="M91,-647.34C91,-640.75 91,-633.08 91,-625.67"/>
<polygon fill="grey" stroke="grey" stroke-width="2" points="94.5,-625.93 91,-615.93 87.5,-625.93 94.5,-625.93"/>
</g>
<!-- 10 -->
<g id="node11" class="node">
<title>10</title>
<path fill="none" stroke="#56d8d8" stroke-width="2" d="M120,-756C120,-756 62,-756 62,-756 56,-756 50,-750 50,-744 50,-744 50,-732 50,-732 50,-726 56,-720 62,-720 62,-720 120,-720 120,-720 126,-720 132,-726 132,-732 132,-732 132,-744 132,-744 132,-750 126,-756 120,-756"/>
<text text-anchor="middle" x="91" y="-734.88" font-family="sans" font-size="10.00">vcftools_filter</text>
</g>
<!-- 10&#45;&gt;9 -->
<g id="edge12" class="edge">
<title>10&#45;&gt;9</title>
<path fill="none" stroke="grey" stroke-width="2" d="M91,-719.34C91,-712.75 91,-705.08 91,-697.67"/>
<polygon fill="grey" stroke="grey" stroke-width="2" points="94.5,-697.93 91,-687.93 87.5,-697.93 94.5,-697.93"/>
</g>
<!-- 11&#45;&gt;10 -->
<g id="edge13" class="edge">
<title>11&#45;&gt;10</title>
<path fill="none" stroke="grey" stroke-width="2" d="M91,-791.34C91,-784.75 91,-777.08 91,-769.67"/>
<polygon fill="grey" stroke="grey" stroke-width="2" points="94.5,-769.93 91,-759.93 87.5,-769.93 94.5,-769.93"/>
</g>
<!-- 12&#45;&gt;6 -->
<g id="edge8" class="edge">
<title>12&#45;&gt;6</title>
<path fill="none" stroke="grey" stroke-width="2" d="M105.21,-431.34C103.4,-424.67 101.28,-416.89 99.25,-409.39"/>
<polygon fill="grey" stroke="grey" stroke-width="2" points="102.65,-408.56 96.65,-399.82 95.89,-410.39 102.65,-408.56"/>
</g>
<!-- 13 -->
<g id="node14" class="node">
<title>13</title>
<path fill="none" stroke="#567bd8" stroke-width="2" d="M182.38,-252C182.38,-252 111.62,-252 111.62,-252 105.62,-252 99.62,-246 99.62,-240 99.62,-240 99.62,-228 99.62,-228 99.62,-222 105.62,-216 111.62,-216 111.62,-216 182.38,-216 182.38,-216 188.38,-216 194.38,-222 194.38,-228 194.38,-228 194.38,-240 194.38,-240 194.38,-246 188.38,-252 182.38,-252"/>
<text text-anchor="middle" x="147" y="-230.88" font-family="sans" font-size="10.00">piawka_agg_het</text>
</g>
<!-- 13&#45;&gt;2 -->
<g id="edge4" class="edge">
<title>13&#45;&gt;2</title>
<path fill="none" stroke="grey" stroke-width="2" d="M128.07,-215.34C119.7,-207.52 109.67,-198.16 100.43,-189.53"/>
<polygon fill="grey" stroke="grey" stroke-width="2" points="103.09,-187.23 93.39,-182.97 98.32,-192.35 103.09,-187.23"/>
</g>
<!-- 14&#45;&gt;13 -->
<g id="edge16" class="edge">
<title>14&#45;&gt;13</title>
<path fill="none" stroke="grey" stroke-width="2" d="M147,-287.34C147,-280.75 147,-273.08 147,-265.67"/>
<polygon fill="grey" stroke="grey" stroke-width="2" points="150.5,-265.93 147,-255.93 143.5,-265.93 150.5,-265.93"/>
</g>
</g>
</svg>
